<?xml version="1.0" encoding="UTF-8" standalone="no"?>
<!-- Created with Inkscape (http://www.inkscape.org/) -->

<svg
   xmlns:dc="http://purl.org/dc/elements/1.1/"
   xmlns:cc="http://creativecommons.org/ns#"
   xmlns:rdf="http://www.w3.org/1999/02/22-rdf-syntax-ns#"
   xmlns:svg="http://www.w3.org/2000/svg"
   xmlns="http://www.w3.org/2000/svg"
   xmlns:sodipodi="http://sodipodi.sourceforge.net/DTD/sodipodi-0.dtd"
   xmlns:inkscape="http://www.inkscape.org/namespaces/inkscape"
   width="299.12109"
   height="26.929701"
   viewBox="0 0 299.12109 26.929701"
   id="svg2"
   version="1.1"
   inkscape:version="0.91 r13725"
   sodipodi:docname="my-awesome-logo.svg">
  <defs
     id="defs4" />
  <sodipodi:namedview
     id="base"
     pagecolor="#ffffff"
     bordercolor="#666666"
     borderopacity="1.0"
     inkscape:pageopacity="0.0"
     inkscape:pageshadow="2"
     inkscape:zoom="3.012158"
     inkscape:cx="71.779096"
     inkscape:cy="22.456798"
     inkscape:document-units="px"
     inkscape:current-layer="layer1"
     showgrid="false"
     units="px"
     inkscape:window-width="1880"
     inkscape:window-height="974"
     inkscape:window-x="20"
     inkscape:window-y="52"
     inkscape:window-maximized="1" />
  <metadata
     id="metadata7">
    <rdf:RDF>
      <cc:Work
         rdf:about="">
        <dc:format>image/svg+xml</dc:format>
        <dc:type
           rdf:resource="http://purl.org/dc/dcmitype/StillImage" />
        <dc:title></dc:title>
      </cc:Work>
    </rdf:RDF>
  </metadata>
  <g
     inkscape:label="Layer 1"
     inkscape:groupmode="layer"
     id="layer1"
     transform="translate(0,-1025.4325)">
    <g
       style="font-style:normal;font-variant:normal;font-weight:200;font-stretch:normal;font-size:17.91685104px;line-height:125%;font-family:Akkurat-Light;-inkscape-font-specification:'Akkurat-Light Ultra-Light';letter-spacing:0px;word-spacing:0px;fill:#000000;fill-opacity:1;stroke:none;stroke-width:1px;stroke-linecap:butt;stroke-linejoin:miter;stroke-opacity:1"
       id="text3336"
       transform="translate(54.070196,0.73296411)">
      <path
         d="m 18.779658,1043.5947 -0.895843,0 0,-5.8588 q 0,-2.4904 -2.132105,-2.4904 -0.931676,0 -1.5946,0.6091 -1.057094,1.0034 -1.057094,2.6697 l 0,5.0704 -0.913759,0 0,-5.8588 q 0,-2.4904 -2.150022,-2.4904 -0.9495936,0 -1.5946002,0.6091 -1.0750111,1.0034 -1.0750111,3.2609 l 0,4.4792 -0.8958425,0 0,-8.9584 0.7883414,0 0.1075011,1.5409 q 0.358337,-0.8063 1.0750111,-1.2901 0.716674,-0.4837 1.6483502,-0.4837 2.239606,0 2.830863,1.935 0.376253,-0.8779 1.092927,-1.3975 0.734591,-0.5375 1.791686,-0.5375 1.505015,0 2.239606,0.8958 0.734591,0.878 0.734591,2.383 l 0,5.9125 z"
         id="path3341"
         inkscape:connector-curvature="0" />
      <path
         d="m 28.741427,1034.6363 -4.15671,10.8755 q -0.698757,1.8275 -2.418775,1.8275 -0.322503,0 -0.609173,-0.054 -0.268753,-0.036 -0.39417,-0.072 l -0.125418,-0.036 0,-0.7525 q 0.627089,0.1075 1.092927,0.1075 1.110845,0 1.630434,-1.3259 l 0.573339,-1.4691 -3.672954,-9.1018 0.96751,0 3.135449,7.9551 3.010031,-7.9551 0.96751,0 z"
         id="path3343"
         inkscape:connector-curvature="0" />
      <path
         d="m 41.988419,1043.5947 q -0.322503,0.054 -0.430005,0.054 -1.415431,0 -1.415431,-1.7559 -0.358337,0.9138 -1.254179,1.4334 -0.895843,0.5016 -1.970854,0.5016 -1.343764,0 -2.221689,-0.7525 -0.860009,-0.7525 -0.860009,-2.0066 0,-1.1646 0.824175,-1.8634 0.824175,-0.7167 2.185856,-0.8063 l 3.2967,-0.2329 0,-0.8779 q 0,-2.0425 -2.365024,-2.0425 -1.110845,0 -1.809602,0.5016 -0.698757,0.5017 -0.770425,1.4692 l -0.895842,0 q 0.08958,-1.3258 1.039177,-2.0604 0.949593,-0.7525 2.436692,-0.7525 1.02126,0 1.845436,0.3942 0.842092,0.3941 1.182512,1.2541 0.232919,0.6092 0.232919,1.72 l 0,4.0851 q 0,0.5017 0.125418,0.7346 0.143335,0.2329 0.573339,0.2329 0.161252,0 0.250836,-0.018 l 0,0.7883 z m -1.845436,-4.1388 0,-0.4658 -3.207116,0.1971 q -1.003344,0.072 -1.5946,0.5733 -0.591256,0.5017 -0.591256,1.308 0,0.9316 0.609173,1.4333 0.62709,0.5017 1.630433,0.5017 1.576683,0 2.365025,-1.0392 0.788341,-1.0571 0.788341,-2.5084 z"
         id="path3345"
         inkscape:connector-curvature="0" />
      <path
         d="m 55.435854,1034.6363 -2.221689,8.9584 -1.075011,0 -2.633777,-7.6684 -2.61586,7.6684 -1.057095,0 -2.221689,-8.9584 0.860009,0 1.93502,7.8834 2.651694,-7.758 0.949593,0 2.633777,7.6863 1.952936,-7.8117 0.842092,0 z"
         id="path3347"
         inkscape:connector-curvature="0" />
      <path
         d="m 64.969301,1038.7393 q 0,0.1075 -0.01792,0.3045 0,0.1792 0,0.2867 l -6.844237,0 q 0.03583,1.6125 0.931677,2.6875 0.806258,0.9496 2.167939,0.9496 1.200429,0 1.952936,-0.7883 0.537506,-0.5733 0.680841,-1.2721 l 0.931676,0 q -0.179169,1.075 -1.003344,1.8813 -1.039177,1.0391 -2.562109,1.0391 -1.737935,0 -2.84878,-1.2721 -1.146678,-1.3437 -1.146678,-3.4042 0,-1.9887 0.877925,-3.1892 1.146679,-1.5587 3.045865,-1.5587 1.737935,0 2.777112,1.29 1.057094,1.2721 1.057094,3.0459 z m -0.913759,-0.233 q -0.03583,-1.3437 -0.824175,-2.2933 -0.788342,-0.9675 -2.096272,-0.9675 -1.343764,0 -2.185856,0.9496 -0.824175,0.9316 -0.824175,2.3112 l 5.930478,0 z"
         id="path3349"
         inkscape:connector-curvature="0" />
      <path
         d="m 74.036347,1041.1043 q 0,0.9496 -0.609172,1.6483 -0.96751,1.075 -2.90253,1.075 -1.917103,0 -2.938364,-1.1466 -0.698757,-0.8063 -0.752508,-1.8096 l 0.91376,0 q 0.07167,0.7883 0.662923,1.3796 0.734591,0.7166 2.114189,0.7166 1.451265,0 2.114188,-0.6629 0.483755,-0.4837 0.483755,-1.1467 0,-0.6271 -0.430004,-1.075 -0.430005,-0.4479 -1.218346,-0.5554 l -1.737935,-0.2329 q -1.397514,-0.1613 -2.024604,-0.8959 -0.501672,-0.5912 -0.501672,-1.4154 0,-1.0213 0.770425,-1.7379 0.913759,-0.8421 2.454608,-0.8421 1.809602,0 2.705445,1.0571 0.645007,0.7704 0.68084,1.6483 l -0.895842,0 q -0.07167,-0.645 -0.447922,-1.075 -0.662923,-0.7883 -2.042521,-0.7883 -1.039177,0 -1.612516,0.4121 -0.698757,0.5016 -0.698757,1.2362 0,0.6092 0.376253,1.0034 0.394171,0.3762 1.361681,0.5016 l 1.702101,0.233 q 1.200429,0.1612 1.827519,0.8779 0.645006,0.6987 0.645006,1.5946 z"
         id="path3351"
         inkscape:connector-curvature="0" />
      <path
         d="m 82.541812,1035.4784 q 1.272097,1.2721 1.272097,3.6371 0,2.365 -1.272097,3.6371 -1.075011,1.075 -2.61586,1.075 -1.540849,0 -2.61586,-1.075 -1.272097,-1.2721 -1.272097,-3.6371 0,-2.365 1.272097,-3.6371 1.075011,-1.075 2.61586,-1.075 1.540849,0 2.61586,1.075 z m -0.645006,6.683 q 1.003343,-1.0392 1.003343,-3.0459 0,-2.0067 -1.003343,-3.0459 -0.752508,-0.7883 -1.970854,-0.7883 -1.218346,0 -1.970854,0.7883 -1.003343,1.0392 -1.003343,3.0459 0,2.0067 1.003343,3.0459 0.752508,0.7883 1.970854,0.7883 1.218346,0 1.970854,-0.7883 z"
         id="path3353"
         inkscape:connector-curvature="0" />
      <path
         d="m 98.915575,1043.5947 -0.895842,0 0,-5.8588 q 0,-2.4904 -2.132105,-2.4904 -0.931677,0 -1.5946,0.6091 -1.057094,1.0034 -1.057094,2.6697 l 0,5.0704 -0.91376,0 0,-5.8588 q 0,-2.4904 -2.150022,-2.4904 -0.949593,0 -1.5946,0.6091 -1.075011,1.0034 -1.075011,3.2609 l 0,4.4792 -0.895842,0 0,-8.9584 0.788341,0 0.107501,1.5409 q 0.358337,-0.8063 1.075011,-1.2901 0.716674,-0.4837 1.648351,-0.4837 2.239606,0 2.830862,1.935 0.376254,-0.8779 1.092928,-1.3975 0.734591,-0.5375 1.791685,-0.5375 1.505016,0 2.239607,0.8958 0.73459,0.878 0.73459,2.383 l 0,5.9125 z"
         id="path3355"
         inkscape:connector-curvature="0" />
      <path
         d="m 109.27151,1038.7393 q 0,0.1075 -0.0179,0.3045 0,0.1792 0,0.2867 l -6.84423,0 q 0.0358,1.6125 0.93167,2.6875 0.80626,0.9496 2.16794,0.9496 1.20043,0 1.95294,-0.7883 0.5375,-0.5733 0.68084,-1.2721 l 0.93167,0 q -0.17916,1.075 -1.00334,1.8813 -1.03918,1.0391 -2.56211,1.0391 -1.73793,0 -2.84878,-1.2721 -1.14668,-1.3437 -1.14668,-3.4042 0,-1.9887 0.87793,-3.1892 1.14668,-1.5587 3.04586,-1.5587 1.73794,0 2.77711,1.29 1.0571,1.2721 1.0571,3.0459 z m -0.91376,-0.233 q -0.0358,-1.3437 -0.82418,-2.2933 -0.78834,-0.9675 -2.09627,-0.9675 -1.34376,0 -2.18585,0.9496 -0.82418,0.9316 -0.82418,2.3112 l 5.93048,0 z"
         id="path3357"
         inkscape:connector-curvature="0" />
      <path
         d="m 118.33576,1043.5947 q -0.39417,0.1075 -0.80626,0.1075 -1.79168,0 -1.79168,-1.8992 l 0,-11.1442 0.89584,0 0,11.1084 q 0,1.075 0.93167,1.075 0.51959,0 0.77043,-0.036 l 0,0.7883 z"
         id="path3359"
         inkscape:connector-curvature="0" />
      <path
         d="m 126.52908,1035.4784 q 1.2721,1.2721 1.2721,3.6371 0,2.365 -1.2721,3.6371 -1.07501,1.075 -2.61586,1.075 -1.54085,0 -2.61586,-1.075 -1.2721,-1.2721 -1.2721,-3.6371 0,-2.365 1.2721,-3.6371 1.07501,-1.075 2.61586,-1.075 1.54085,0 2.61586,1.075 z m -0.64501,6.683 q 1.00335,-1.0392 1.00335,-3.0459 0,-2.0067 -1.00335,-3.0459 -0.75251,-0.7883 -1.97085,-0.7883 -1.21835,0 -1.97085,0.7883 -1.00335,1.0392 -1.00335,3.0459 0,2.0067 1.00335,3.0459 0.7525,0.7883 1.97085,0.7883 1.21834,0 1.97085,-0.7883 z"
         id="path3361"
         inkscape:connector-curvature="0" />
      <path
         d="m 138.02946,1044.9385 q 0,0.9496 -0.68084,1.6663 -1.03918,1.0571 -3.54754,1.0571 -2.31127,0 -3.33253,-1.0392 -0.62709,-0.6629 -0.62709,-1.6125 0,-0.663 0.35833,-1.2363 0.35834,-0.5733 0.98543,-0.86 -0.46584,-0.1254 -0.80626,-0.5554 -0.3225,-0.448 -0.3225,-0.9138 0,-1.075 1.07501,-1.7021 -0.89584,-0.86 -0.89584,-2.2038 0,-1.4154 0.94959,-2.2754 0.94959,-0.86 2.40086,-0.86 1.18251,0 2.09627,0.6092 0.16125,-0.5555 0.66292,-0.878 0.51959,-0.3404 1.14668,-0.3404 0.0538,0 0.16125,0.018 0.12542,0.018 0.17917,0.018 l 0,0.7705 q -0.0538,0 -0.17917,-0.018 -0.1075,-0.018 -0.16125,-0.018 -0.48375,0 -0.82417,0.2688 -0.32251,0.2508 -0.41209,0.6987 0.71667,0.8242 0.71667,2.0067 0,1.4155 -0.96751,2.2576 -0.96751,0.842 -2.41877,0.842 -1.00334,0 -1.79169,-0.412 -0.89584,0.3404 -0.89584,1.1108 0,0.5913 0.62709,0.8421 0.37626,0.1433 1.20043,0.1433 l 1.95294,0 q 1.77377,0 2.63377,0.878 0.71668,0.7166 0.71668,1.7379 z m -2.66961,-5.7155 q 0.71667,-0.6271 0.71667,-1.6842 0,-1.0571 -0.71667,-1.6842 -0.69876,-0.645 -1.77377,-0.645 -1.07501,0 -1.77377,0.645 -0.69876,0.6271 -0.69876,1.6842 0,1.0571 0.69876,1.6842 0.69876,0.6092 1.77377,0.6092 1.07501,0 1.77377,-0.6092 z m 1.77377,5.7155 q 0,-0.645 -0.43001,-1.1109 -0.62709,-0.6629 -2.16794,-0.6629 l -2.36502,0 q -0.62709,0.1434 -1.0571,0.6271 -0.43,0.4838 -0.43,1.2184 0,0.6808 0.48375,1.1287 0.75251,0.7167 2.6517,0.7167 2.06044,0 2.84878,-0.7883 0.46584,-0.4659 0.46584,-1.1288 z"
         id="path3363"
         inkscape:connector-curvature="0" />
      <path
         d="m 145.88067,1035.4784 q 1.2721,1.2721 1.2721,3.6371 0,2.365 -1.2721,3.6371 -1.07501,1.075 -2.61586,1.075 -1.54085,0 -2.61586,-1.075 -1.2721,-1.2721 -1.2721,-3.6371 0,-2.365 1.2721,-3.6371 1.07501,-1.075 2.61586,-1.075 1.54085,0 2.61586,1.075 z m -0.645,6.683 q 1.00334,-1.0392 1.00334,-3.0459 0,-2.0067 -1.00334,-3.0459 -0.75251,-0.7883 -1.97086,-0.7883 -1.21834,0 -1.97085,0.7883 -1.00335,1.0392 -1.00335,3.0459 0,2.0067 1.00335,3.0459 0.75251,0.7883 1.97085,0.7883 1.21835,0 1.97086,-0.7883 z"
         id="path3365"
         inkscape:connector-curvature="0" />
    </g>
    <path
       style="color:#000000;clip-rule:nonzero;display:inline;overflow:visible;visibility:visible;opacity:1;isolation:auto;mix-blend-mode:normal;color-interpolation:sRGB;color-interpolation-filters:linearRGB;solid-color:#000000;solid-opacity:1;fill:#cccccc;fill-opacity:1;fill-rule:nonzero;stroke:none;stroke-width:5;stroke-linecap:square;stroke-linejoin:miter;stroke-miterlimit:4;stroke-dasharray:none;stroke-dashoffset:0;stroke-opacity:1;marker:none;color-rendering:auto;image-rendering:auto;shape-rendering:auto;text-rendering:auto;enable-background:accumulate"
       d="m 267.05009,1038.8973 a 7.3867307,7.3867307 0 0 1 -7.38673,7.3868 7.3867307,7.3867307 0 0 1 -7.38673,-7.3868 7.3867307,7.3867307 0 0 1 7.38673,-7.3867 7.3867307,7.3867307 0 0 1 7.38673,7.3867 z"
       id="path3386"
       inkscape:connector-curvature="0" />
    <path
       style="color:#000000;clip-rule:nonzero;display:inline;overflow:visible;visibility:visible;opacity:1;isolation:auto;mix-blend-mode:normal;color-interpolation:sRGB;color-interpolation-filters:linearRGB;solid-color:#000000;solid-opacity:1;fill:#cccccc;fill-opacity:1;fill-rule:nonzero;stroke:none;stroke-width:5;stroke-linecap:square;stroke-linejoin:miter;stroke-miterlimit:4;stroke-dasharray:none;stroke-dashoffset:0;stroke-opacity:1;marker:none;color-rendering:auto;image-rendering:auto;shape-rendering:auto;text-rendering:auto;enable-background:accumulate"
       d="m 292.39831,1038.8973 a 7.3867307,7.3867307 0 0 1 -7.38673,7.3868 7.3867307,7.3867307 0 0 1 -7.38673,-7.3868 7.3867307,7.3867307 0 0 1 7.38673,-7.3867 7.3867307,7.3867307 0 0 1 7.38673,7.3867 z"
       id="path3386-3"
       inkscape:connector-curvature="0" />
    <path
       style="fill:#00ff00;fill-rule:evenodd;stroke:#000000;stroke-width:1px;stroke-linecap:butt;stroke-linejoin:miter;stroke-opacity:1"
       d="m 224.7477,1033.6171 c 0,0 -12.61554,-1.162 -12.44955,0 0.16599,1.1619 2.6559,9.7936 3.65187,9.9596 0.99596,0.166 9.62765,-3.8179 10.12563,-2.6559 0.49798,1.162 4.97982,8.1337 4.97982,8.1337 l 9.95963,-4.6478 c 0,0 -3.31988,-6.3078 -3.31988,-7.4698 0,-1.1619 2.32392,-7.8017 2.32392,-7.8017 l -11.28759,-0.498 2.15792,4.9799 z"
       id="path3405"
       inkscape:connector-curvature="0" />
    <rect
       style="color:#000000;clip-rule:nonzero;display:inline;overflow:visible;visibility:visible;opacity:1;isolation:auto;mix-blend-mode:normal;color-interpolation:sRGB;color-interpolation-filters:linearRGB;solid-color:#000000;solid-opacity:1;fill:#00ff00;fill-opacity:1;fill-rule:nonzero;stroke:#000000;stroke-width:1;stroke-linecap:square;stroke-linejoin:miter;stroke-miterlimit:4;stroke-dasharray:none;stroke-dashoffset:0;stroke-opacity:1;marker:none;color-rendering:auto;image-rendering:auto;shape-rendering:auto;text-rendering:auto;enable-background:accumulate"
       id="rect3434"
       width="43.158428"
       height="15.935419"
       x="6.3077698"
       y="1031.115" />
  </g>
</svg>
