<?xml version="1.0" encoding="UTF-8" standalone="no"?>
<!-- Created with Inkscape (http://www.inkscape.org/) -->

<svg
   xmlns:dc="http://purl.org/dc/elements/1.1/"
   xmlns:cc="http://creativecommons.org/ns#"
   xmlns:rdf="http://www.w3.org/1999/02/22-rdf-syntax-ns#"
   xmlns:svg="http://www.w3.org/2000/svg"
   xmlns="http://www.w3.org/2000/svg"
   xmlns:sodipodi="http://sodipodi.sourceforge.net/DTD/sodipodi-0.dtd"
   xmlns:inkscape="http://www.inkscape.org/namespaces/inkscape"
   width="14"
   height="22"
   viewBox="0 0 14.000001 21.999999"
   id="svg2"
   version="1.1"
   inkscape:version="0.91 r13725"
   sodipodi:docname="pushpin.svg">
  <defs
     id="defs4" />
  <sodipodi:namedview
     id="base"
     pagecolor="#ffffff"
     bordercolor="#666666"
     borderopacity="1.0"
     inkscape:pageopacity="0.0"
     inkscape:pageshadow="2"
     inkscape:zoom="34.681818"
     inkscape:cx="7"
     inkscape:cy="11"
     inkscape:document-units="px"
     inkscape:current-layer="layer1"
     showgrid="false"
     inkscape:window-width="1880"
     inkscape:window-height="974"
     inkscape:window-x="20"
     inkscape:window-y="52"
     inkscape:window-maximized="1"
     fit-margin-top="0"
     fit-margin-left="0"
     fit-margin-right="0"
     fit-margin-bottom="0"
     units="px" />
  <metadata
     id="metadata7">
    <rdf:RDF>
      <cc:Work
         rdf:about="">
        <dc:format>image/svg+xml</dc:format>
        <dc:type
           rdf:resource="http://purl.org/dc/dcmitype/StillImage" />
        <dc:title></dc:title>
      </cc:Work>
    </rdf:RDF>
  </metadata>
  <g
     inkscape:label="Layer 1"
     inkscape:groupmode="layer"
     id="layer1"
     transform="translate(-324.06449,-544.35909)">
    <g
       id="g4143"
       transform="matrix(0.94957577,0,0,0.94957577,16.340698,28.217476)">
      <path
         sodipodi:nodetypes="czccscccscczcc"
         inkscape:connector-curvature="0"
         id="path4136"
         d="m 333.72581,559.28656 c 0,0 1.50288,-2.07679 1.24487,-2.75905 -0.25801,-0.68226 -0.89144,-1.30668 -0.89144,-1.30668 l 2.15979,-4.78682 c 0,0 0.71427,0.22165 1.01705,0.10715 0.76554,-0.28951 1.00982,-2.23809 1.00982,-2.23809 l -4.19669,-1.89353 -4.19657,-1.89348 c 0,0 -1.29932,1.47255 -1.00982,2.23809 0.11449,0.30274 0.75322,0.69159 0.75322,0.69159 l -2.1598,4.78681 c 0,0 -0.88731,-0.0617 -1.56957,0.19629 -0.68227,0.25801 -1.24488,2.75905 -1.24488,2.75905 z"
         style="fill:none;fill-rule:evenodd;stroke:#FFFFFF;stroke-width:1.00000012;stroke-linecap:butt;stroke-linejoin:miter;stroke-miterlimit:4;stroke-dasharray:none;stroke-opacity:1" />
      <path
         sodipodi:nodetypes="czczcc"
         inkscape:connector-curvature="0"
         id="path4136-6"
         d="m 330.37305,557.77381 c 0,0 -2.79824,5.13914 -3.42568,6.04774 -0.62743,0.90859 -1.3876,1.5307 -1.3876,1.5307 0,0 -0.0592,-0.99196 0.19994,-2.06657 0.25918,-1.07461 2.23802,-6.58361 2.23802,-6.58361 l 2.37532,1.07174"
         style="fill:none;fill-rule:evenodd;stroke:#FFFFFF;stroke-width:1.00000012;stroke-linecap:butt;stroke-linejoin:miter;stroke-miterlimit:4;stroke-dasharray:none;stroke-opacity:1" />
    </g>
  </g>
</svg>
