<svg xmlns="http://www.w3.org/2000/svg" width="18" height="18" viewBox="0 0 18 18">
  <g fill-rule="evenodd">
    <path d="M10.6312368,1.3603427 C10.0565435,1.3603427 9.19541008,1.71688215 8.78871338,2.12357885 L1.60414122,9.30754671 C1.32193117,9.59036106 1.32193117,10.0508408 1.60414122,10.3336552 L6.9758009,15.7047106 C7.24773777,15.9766474 7.72936819,15.9766474 8.00130506,15.7047106 L15.1858772,8.52074269 C15.5925739,8.11404599 15.9491134,7.25291256 15.9491134,6.67821931 L15.9491134,2.08550769 C15.9491134,1.68606264 15.6233934,1.3603427 15.2239484,1.3603427 L10.6312368,1.3603427 Z M7.48885513,17.124221 C6.97096646,17.124221 6.48571022,16.923592 6.12131482,16.5591966 L0.749655133,11.1881413 C-0.00391215515,10.4339697 -0.00391215515,9.20723222 0.749655133,8.45306063 L7.9342273,1.26909277 C8.56089071,0.642429353 9.74532687,0.151734375 10.6312368,0.151734375 L15.2239484,0.151734375 C16.2899409,0.151734375 17.1577217,1.01951515 17.1577217,2.08550769 L17.1577217,6.67821931 C17.1577217,7.56412921 16.6670267,8.74916967 16.0403633,9.37522878 L8.85579114,16.5591966 C8.49200004,16.923592 8.00613949,17.124221 7.48885513,17.124221 Z"/>
    <path d="M12.3231676,3.73531848 C11.6330522,3.73531848 11.0722579,4.29611274 11.0722579,4.98622809 C11.0722579,5.67573914 11.6330522,6.2371377 12.3231676,6.2371377 C13.0132829,6.2371377 13.5740772,5.67573914 13.5740772,4.98622809 C13.5740772,4.29611274 13.0132829,3.73531848 12.3231676,3.73531848 M12.3231676,7.36114344 C11.0136404,7.36114344 9.9482522,6.2957552 9.9482522,4.98622809 C9.9482522,3.67670097 11.0136404,2.61131274 12.3231676,2.61131274 C13.6326947,2.61131274 14.6980829,3.67670097 14.6980829,4.98622809 C14.6980829,6.2957552 13.6326947,7.36114344 12.3231676,7.36114344"/>
  </g>
</svg>
