<svg xmlns="http://www.w3.org/2000/svg" width="15" height="16" viewBox="0 0 15 16">
  <path fill-rule="evenodd" d="M1068.40057,1107.25169 C1067.9419,1107.25169 1067.54724,1107.17702 1067.21657,1107.02769 C1066.8859,1106.87835 1066.6139,1106.68102 1066.40057,1106.43569 C1066.18724,1106.19035 1066.0299,1105.90236 1065.92857,1105.57169 C1065.82724,1105.24102 1065.77657,1104.89969 1065.77657,1104.54769 L1065.77657,1104.10769 C1065.77657,1103.93169 1065.77924,1103.74769 1065.78457,1103.55569 C1065.7899,1103.36369 1065.79257,1103.17969 1065.79257,1103.00369 L1065.79257,1102.56369 C1065.79257,1101.85968 1065.63524,1101.36369 1065.32057,1101.07569 C1065.0059,1100.78769 1064.53391,1100.61702 1063.90457,1100.56369 L1063.90457,1099.07569 C1064.20324,1099.04369 1064.4699,1098.99302 1064.70457,1098.92369 C1064.93924,1098.85435 1065.13657,1098.74502 1065.29657,1098.59569 C1065.45657,1098.44635 1065.57924,1098.25169 1065.66457,1098.01169 C1065.7499,1097.77169 1065.79257,1097.46502 1065.79257,1097.09169 L1065.79257,1096.65169 C1065.79257,1096.47569 1065.7899,1096.29169 1065.78457,1096.09969 C1065.77924,1095.90769 1065.77657,1095.72369 1065.77657,1095.54769 L1065.77657,1095.10769 C1065.77657,1094.75569 1065.82724,1094.41436 1065.92857,1094.08369 C1066.0299,1093.75302 1066.18724,1093.46502 1066.40057,1093.21969 C1066.6139,1092.97435 1066.8859,1092.77702 1067.21657,1092.62769 C1067.54724,1092.47835 1067.9419,1092.40369 1068.40057,1092.40369 L1069.24857,1092.40369 L1069.24857,1093.76369 L1068.70457,1093.76369 C1068.17123,1093.76369 1067.80324,1093.89169 1067.60057,1094.14769 C1067.3979,1094.40369 1067.29657,1094.76102 1067.29657,1095.21969 L1067.29657,1097.68369 C1067.29657,1097.91836 1067.25924,1098.14769 1067.18457,1098.37169 C1067.1099,1098.59569 1067.00057,1098.80102 1066.85657,1098.98769 C1066.71257,1099.17436 1066.5339,1099.33702 1066.32057,1099.47569 C1066.10724,1099.61435 1065.85657,1099.71569 1065.56857,1099.77969 L1065.56857,1099.82769 C1065.85657,1099.89169 1066.10724,1099.99569 1066.32057,1100.13969 C1066.5339,1100.28369 1066.71257,1100.45169 1066.85657,1100.64369 C1067.00057,1100.83569 1067.1099,1101.04635 1067.18457,1101.27569 C1067.25924,1101.50502 1067.29657,1101.73702 1067.29657,1101.97169 L1067.29657,1104.43569 C1067.29657,1104.89436 1067.3979,1105.25169 1067.60057,1105.50769 C1067.80324,1105.76369 1068.17123,1105.89169 1068.70457,1105.89169 L1069.24857,1105.89169 L1069.24857,1107.25169 L1068.40057,1107.25169 Z M1077.93657,1100.56369 C1077.30723,1100.61702 1076.83524,1100.78769 1076.52057,1101.07569 C1076.2059,1101.36369 1076.04857,1101.85968 1076.04857,1102.56369 L1076.04857,1103.00369 C1076.04857,1103.17969 1076.05124,1103.36369 1076.05657,1103.55569 C1076.0619,1103.74769 1076.06457,1103.93169 1076.06457,1104.10769 L1076.06457,1104.54769 C1076.06457,1104.89969 1076.0139,1105.24102 1075.91257,1105.57169 C1075.81124,1105.90236 1075.6539,1106.19035 1075.44057,1106.43569 C1075.22724,1106.68102 1074.95524,1106.87835 1074.62457,1107.02769 C1074.2939,1107.17702 1073.89924,1107.25169 1073.44057,1107.25169 L1072.59257,1107.25169 L1072.59257,1105.89169 L1073.13657,1105.89169 C1073.66991,1105.89169 1074.0379,1105.76369 1074.24057,1105.50769 C1074.44324,1105.25169 1074.54457,1104.89436 1074.54457,1104.43569 L1074.54457,1101.97169 C1074.54457,1101.73702 1074.5819,1101.50502 1074.65657,1101.27569 C1074.73124,1101.04635 1074.84057,1100.83569 1074.98457,1100.64369 C1075.12857,1100.45169 1075.30724,1100.28369 1075.52057,1100.13969 C1075.7339,1099.99569 1075.98457,1099.89169 1076.27257,1099.82769 L1076.27257,1099.77969 C1075.98457,1099.71569 1075.7339,1099.61435 1075.52057,1099.47569 C1075.30724,1099.33702 1075.12857,1099.17436 1074.98457,1098.98769 C1074.84057,1098.80102 1074.73124,1098.59569 1074.65657,1098.37169 C1074.5819,1098.14769 1074.54457,1097.91836 1074.54457,1097.68369 L1074.54457,1095.21969 C1074.54457,1094.76102 1074.44324,1094.40369 1074.24057,1094.14769 C1074.0379,1093.89169 1073.66991,1093.76369 1073.13657,1093.76369 L1072.59257,1093.76369 L1072.59257,1092.40369 L1073.44057,1092.40369 C1073.89924,1092.40369 1074.2939,1092.47835 1074.62457,1092.62769 C1074.95524,1092.77702 1075.22724,1092.97435 1075.44057,1093.21969 C1075.6539,1093.46502 1075.81124,1093.75302 1075.91257,1094.08369 C1076.0139,1094.41436 1076.06457,1094.75569 1076.06457,1095.10769 L1076.06457,1095.54769 C1076.06457,1095.72369 1076.0619,1095.90769 1076.05657,1096.09969 C1076.05124,1096.29169 1076.04857,1096.47569 1076.04857,1096.65169 L1076.04857,1097.09169 C1076.04857,1097.46502 1076.08857,1097.77169 1076.16857,1098.01169 C1076.24857,1098.25169 1076.36857,1098.44635 1076.52857,1098.59569 C1076.68857,1098.74502 1076.8859,1098.85435 1077.12057,1098.92369 C1077.35524,1098.99302 1077.62724,1099.04369 1077.93657,1099.07569 L1077.93657,1100.56369 Z" transform="translate(-1063 -1092)"></path>
</svg>
