<svg xmlns="http://www.w3.org/2000/svg" width="14" height="19" viewBox="0 0 14 19">
  <path fill="#FFF" fill-rule="evenodd" d="M907.09375,836.3125 L904.78125,836.3125 L904.78125,835.158563 L904.783563,835.15625 L907.092016,835.15625 C907.092594,835.156828 907.09375,835.157406 907.094328,835.158563 L907.09375,836.3125 Z M910.5625,836.3125 L908.25,836.3125 L908.25,835.15625 C908.25,834.520313 907.729687,834 907.09375,834 L904.78125,834 C904.145313,834 903.625,834.520313 903.625,835.15625 L903.625,836.3125 L901.3125,836.3125 L901.3125,838.625 L910.5625,838.625 L910.5625,836.3125 Z M908.25,851.34375 L908.25,847.875 L911.71875,847.875 L908.25,851.34375 Z M912.296875,836.3125 L911.140625,836.3125 L911.140625,837.46875 L911.71875,837.46875 L911.71875,846.71875 L907.09375,846.71875 L907.09375,851.34375 L900.15625,851.34375 L900.15625,837.46875 L900.734375,837.46875 L900.734375,836.3125 L899.578125,836.3125 C899.260156,836.3125 899,836.572656 899,836.890625 L899,851.921875 C899,852.239844 899.260156,852.5 899.578125,852.5 L908.683594,852.5 L912.875,848.308594 L912.875,836.890625 C912.875,836.572656 912.614844,836.3125 912.296875,836.3125 Z" transform="translate(-899 -834)"/>
</svg>
