<svg xmlns="http://www.w3.org/2000/svg" width="19" height="19" viewBox="0 0 19 19">
  <path d="M13.9979533,12.8743308 L18.7135545,17.589932 L17.6528943,18.6505922 L12.9372931,13.9349909 C11.6482528,14.9892428 10.0008219,15.6217043 8.20567168,15.6217043 C4.07513682,15.6217043 0.726676719,12.2732442 0.726676719,8.14270935 C0.726676719,4.01217449 4.07513682,0.663714394 8.20567168,0.663714394 C12.3362065,0.663714394 15.6846666,4.01217449 15.6846666,8.14270935 C15.6846666,9.93785957 15.0522051,11.5852905 13.9979533,12.8743308 Z M8.20567168,14.1217043 C11.5077794,14.1217043 14.1846666,11.4448171 14.1846666,8.14270935 C14.1846666,4.84060162 11.5077794,2.16371439 8.20567168,2.16371439 C4.90356394,2.16371439 2.22667672,4.84060162 2.22667672,8.14270935 C2.22667672,11.4448171 4.90356394,14.1217043 8.20567168,14.1217043 Z" transform="translate(-.162 .197)"/>
</svg>
