<?xml version="1.0" encoding="UTF-8" standalone="no"?>
<!-- Created with Inkscape (http://www.inkscape.org/) -->

<svg
   xmlns:dc="http://purl.org/dc/elements/1.1/"
   xmlns:cc="http://creativecommons.org/ns#"
   xmlns:rdf="http://www.w3.org/1999/02/22-rdf-syntax-ns#"
   xmlns:svg="http://www.w3.org/2000/svg"
   xmlns="http://www.w3.org/2000/svg"
   xmlns:sodipodi="http://sodipodi.sourceforge.net/DTD/sodipodi-0.dtd"
   xmlns:inkscape="http://www.inkscape.org/namespaces/inkscape"
   width="107.52411"
   height="65.522316"
   viewBox="0 0 28.449087 17.336113"
   version="1.1"
   id="svg8"
   sodipodi:docname="explanation.svg"
   inkscape:export-filename="/home/daisycutter/github/research-software-directory/research-software-directory/graphs/metrics/dig-deeper.png"
   inkscape:export-xdpi="299.95901"
   inkscape:export-ydpi="299.95901"
   inkscape:version="0.92.3 (2405546, 2018-03-11)">
  <defs
     id="defs2" />
  <sodipodi:namedview
     id="base"
     pagecolor="#ffffff"
     bordercolor="#666666"
     borderopacity="1.0"
     inkscape:pageopacity="0.0"
     inkscape:pageshadow="2"
     inkscape:zoom="11.538054"
     inkscape:cx="53.762054"
     inkscape:cy="32.761158"
     inkscape:document-units="mm"
     inkscape:current-layer="layer1"
     showgrid="false"
     units="px"
     fit-margin-top="0"
     fit-margin-left="0"
     fit-margin-right="0"
     fit-margin-bottom="0"
     inkscape:window-width="1880"
     inkscape:window-height="974"
     inkscape:window-x="20"
     inkscape:window-y="52"
     inkscape:window-maximized="1" />
  <metadata
     id="metadata5">
    <rdf:RDF>
      <cc:Work
         rdf:about="">
        <dc:format>image/svg+xml</dc:format>
        <dc:type
           rdf:resource="http://purl.org/dc/dcmitype/StillImage" />
        <dc:title />
      </cc:Work>
    </rdf:RDF>
  </metadata>
  <g
     inkscape:label="Layer 1"
     inkscape:groupmode="layer"
     id="layer1"
     transform="translate(-2.4949096,-276.27932)">
    <path
       style="color:#000000;clip-rule:nonzero;display:inline;overflow:visible;visibility:visible;opacity:1;isolation:auto;mix-blend-mode:normal;color-interpolation:sRGB;color-interpolation-filters:linearRGB;solid-color:#000000;solid-opacity:1;fill:#f2f2f2;fill-opacity:1;fill-rule:nonzero;stroke:#f2f2f2;stroke-width:0;stroke-linecap:square;stroke-linejoin:miter;stroke-miterlimit:4;stroke-dasharray:none;stroke-dashoffset:0;stroke-opacity:1;marker:none;color-rendering:auto;image-rendering:auto;shape-rendering:auto;text-rendering:auto;enable-background:accumulate"
       d="M 53.761719 0.095703125 A 32.577884 32.577884 0 0 0 21.183594 32.673828 A 32.577884 32.577884 0 0 0 53.761719 65.251953 A 32.577884 32.577884 0 0 0 86.339844 32.673828 A 32.577884 32.577884 0 0 0 53.761719 0.095703125 z M 53.96875 7.7011719 C 56.99449 7.7011719 59.457031 10.163713 59.457031 13.189453 C 59.457031 16.215193 56.99449 18.677734 53.96875 18.677734 C 50.94301 18.677734 48.480469 16.215193 48.480469 13.189453 C 48.480469 10.163713 50.94301 7.7011719 53.96875 7.7011719 z M 58.472656 24.236328 L 58.472656 52.59375 L 62.835938 52.59375 L 62.835938 55.902344 L 54.601562 55.691406 L 46.017578 55.902344 L 46.017578 52.59375 L 50.873047 52.59375 L 50.873047 30.851562 C 50.873047 28.107287 50.380112 28.107422 46.228516 28.107422 L 46.228516 24.800781 L 58.472656 24.236328 z "
       transform="matrix(0.26458333,0,0,0.26458333,2.4949096,276.27932)"
       id="path822" />
    <g
       aria-label="i"
       style="font-style:normal;font-variant:normal;font-weight:normal;font-stretch:normal;font-size:21.64156151px;line-height:125%;font-family:monospace;-inkscape-font-specification:monospace;letter-spacing:0px;word-spacing:0px;fill:#f2f2f2;fill-opacity:1;stroke:none;stroke-width:0.54103899px;stroke-linecap:butt;stroke-linejoin:miter;stroke-opacity:1"
       id="text13-2"
       transform="matrix(0.85754544,0,0,0.85754544,2.6372566,40.570026)" />
  </g>
</svg>
