<?xml version="1.0" encoding="UTF-8" standalone="no"?>
<!-- Created with Inkscape (http://www.inkscape.org/) -->

<svg
   xmlns:dc="http://purl.org/dc/elements/1.1/"
   xmlns:cc="http://creativecommons.org/ns#"
   xmlns:rdf="http://www.w3.org/1999/02/22-rdf-syntax-ns#"
   xmlns:svg="http://www.w3.org/2000/svg"
   xmlns="http://www.w3.org/2000/svg"
   version="1.1"
   width="320.59375"
   height="71.160835"
   id="svg3543">
  <defs
     id="defs3545" />
  <g
     transform="translate(-105.41741,-491.06748)"
     id="layer1">
    <path
       d="m 315.63616,492.07206 c -2.32469,0 -5.0625,1.40651 -5.0625,4.34375 0,2.00812 1.2166,3.26297 3.59375,4.4375 2.34905,1.20075 4.125,1.6472 4.125,4 0,1.197 -0.69498,3.28125 -3.34375,3.28125 -2.61692,0 -3.92423,-2.23541 -4.4375,-4 l 0.0625,3.65625 c 0.90665,0.51327 2.42701,1.375 4.5625,1.375 2.6188,0 5.40625,-1.941 5.40625,-5 0,-3.28005 -2.30217,-4.01987 -4.625,-5.21875 -2.35279,-1.15204 -3.34375,-1.73957 -3.34375,-3.28125 0,-1.05276 0.6357,-2.59375 2.71875,-2.59375 2.30222,0 3.67465,1.9836 3.96875,3.15625 l -0.125,-3.21875 c -1.15018,-0.76241 -2.59709,-0.9375 -3.5,-0.9375 z m 54.28125,0 c -4.99969,-0.16859 -7.92448,4.34497 -8.03125,8.3125 -0.10678,5.04652 3.53384,8.68575 7.625,8.78125 3.52358,0.12738 7.76822,-2.79461 7.875,-8.375 0.10303,-5.58789 -3.98452,-8.64195 -7.46875,-8.71875 z m -138.6875,0.21875 c 0.36528,0.19857 0.75,0.56116 0.75,1.125 l 0,10.28125 c 0,4.14174 3.61878,5.46875 6.3125,5.46875 3.06276,0 5.65625,-1.48377 5.65625,-5.5 l 0.0625,-10.25 c 0,-0.56384 0.26475,-0.92643 0.65625,-1.125 l -2.71875,0 c 0.39151,0.19857 0.65625,0.56116 0.65625,1.125 l 0.0937,10.34375 c 0,2.20668 -1.03058,4.28125 -4.3125,4.28125 -3.45426,0 -4.0625,-2.58784 -4.0625,-4.28125 l 0,-10.34375 c 0,-0.56384 0.42286,-0.92643 0.8125,-1.125 l -3.90625,0 z m 14.96875,0 c 0.56385,0.24727 0.85338,0.58277 1.125,0.875 0.29223,0.39338 0.28125,0.44441 0.28125,1.15625 l 0,13.53125 c 0,0.53575 -0.25785,0.8727 -0.625,1.09375 l 2.59375,0 c -0.44022,-0.22105 -0.6875,-0.558 -0.6875,-1.09375 l 0,-12.84375 c 0,0.24352 11.71875,14.40625 11.71875,14.40625 l 0,-16 c 0,-0.56384 0.26475,-0.92643 0.65625,-1.125 l -2.53125,0 c 0.36715,0.19857 0.625,0.56116 0.625,1.125 l 0,10.8125 -9.65625,-11.9375 -3.5,0 z m 17.46875,0 c 0.3915,0.19856 0.65625,0.56302 0.65625,1.125 l 0,14.4375 c 0,0.53574 -0.26475,0.87271 -0.65625,1.09375 l 3.625,0 c -0.36716,-0.22104 -0.625,-0.55801 -0.625,-1.09375 l 0,-14.4375 c 0,-0.56198 0.25784,-0.92644 0.625,-1.125 l -3.625,0 z m 4.96875,0 c 0.80924,0.29598 1.01337,0.69671 1.28125,1.1875 0.41773,0.90478 6.71875,16.09375 6.71875,16.09375 0,0 5.70411,-15.1384 6.09375,-16.09375 0.29222,-0.6369 0.23809,-0.77164 0.875,-1.1875 l -2.6875,0 c 0.59007,0.24727 0.62542,0.5993 0.40625,1.1875 0,0.0974 -4.3125,11.625 -4.3125,11.625 0,0 -4.3282,-11.27075 -4.375,-11.34375 -0.17421,-0.61443 -0.16815,-1.22148 0.46875,-1.46875 l -4.46875,0 z m 15.96875,0 c 0.39338,0.19669 0.6875,0.56115 0.6875,1.125 l 0,14.4375 c 0,0.58632 -0.30978,0.87271 -0.75,1.09375 l 9.84375,0 0.53125,-2.71875 c -0.90478,1.54168 -1.85685,1.53125 -4.5,1.53125 -1.15392,0.0225 -2.30613,-0.10565 -2.84375,-0.15625 l 0,-7.21875 4,0 c 0.34093,0 0.75137,0.3934 0.875,0.6875 l 0,-2.65625 c -0.12363,0.29784 -0.53407,0.6875 -0.875,0.6875 l -4,0 0,-5.53125 c 0,0 3.75606,0.0312 4.21875,0.0312 1.05277,0 1.57358,0.31303 2.0625,0.875 l -0.0625,-2.1875 -9.1875,0 z m 11.5625,0 c 0.3709,0.19669 0.6875,0.56116 0.6875,1.125 l 0,14.4375 c 0,0.53575 -0.3166,0.8727 -0.6875,1.09375 l 3.65625,0 c -0.36903,-0.22105 -0.6875,-0.558 -0.6875,-1.09375 l 0,-6.59375 1.4375,0 c 1.27194,0 1.76747,1.05154 2.40625,2.03125 0.85795,1.37121 1.7468,2.72298 3,4.5625 0.36716,0.5114 1.04277,1.15625 2,1.15625 l 2.5,-0.0625 c 0,0 -1.04736,-0.38055 -1.5625,-0.96875 -1.07525,-1.15204 -3.6875,-5.625 -3.6875,-5.625 -0.36903,-0.53949 -1.04874,-1.57213 -2.375,-1.84375 1.52108,-0.12364 3.875,-1.4781 3.875,-4.125 0,-1.54168 -1.04084,-4.09375 -5.9375,-4.09375 l -4.625,0 z m 25.9375,0 c 0.39338,0.19856 0.65625,0.56302 0.65625,1.125 l 0,14.4375 c 0,0.53574 -0.26287,0.87271 -0.65625,1.09375 l 3.625,0 c -0.36716,-0.22104 -0.625,-0.55801 -0.625,-1.09375 l 0,-14.4375 c 0,-0.56198 0.25784,-0.92644 0.625,-1.125 l -3.625,0 z m 5.03125,0 0,2.3125 c 0.22292,-0.39151 0.66555,-0.96875 1.25,-0.96875 0,0 2.19547,-0.15625 4.03125,-0.15625 l 0,14.375 c 0,0.53575 -0.20914,0.8727 -0.625,1.09375 l 3.625,0 c -0.39338,-0.22105 -0.65625,-0.558 -0.65625,-1.09375 l 0,-14.375 c 1.79082,0 4,0.15625 4,0.15625 0.63503,0.0487 1.03772,0.57724 1.28125,0.96875 l -0.0312,-2.3125 -12.875,0 z m 13.4375,0 c 0.68374,0.3428 0.98162,0.5993 1.375,1.1875 l 4.65625,7.6875 0,6.6875 c 0,0.58632 -0.51475,0.87271 -0.90625,1.09375 l 4.1875,0 c -0.44209,-0.22104 -0.90625,-0.55801 -0.90625,-1.09375 l 0,-6.78125 3.96875,-7.4375 c 0.29222,-0.59007 0.72754,-1.04591 1.4375,-1.34375 l -3.25,0 c 0.68374,0.19856 0.87405,0.52812 0.53125,1.1875 l -3.34375,6.375 -3.4375,-6.03125 c -0.6369,-1.15392 -0.15572,-1.28399 0.40625,-1.53125 l -4.71875,0 z m 38.375,0 c 0.39151,0.19669 0.6875,0.56115 0.6875,1.125 l 0,14.4375 c 0,0.58633 -0.24728,0.87271 -0.6875,1.09375 l 3.71875,0 c -0.44209,-0.22104 -0.71875,-0.50742 -0.71875,-1.09375 l 0.0312,-7.46875 4.0625,0 c 0.34093,0 0.72574,0.39527 0.84375,0.6875 l 0,-2.65625 c -0.11801,0.2941 -0.50282,0.6875 -0.84375,0.6875 l -4.0625,0 -0.0312,-5.59375 c 0,0 4.10304,0.0431 4.6875,0.0937 1.20074,0 1.75094,0.35117 2.09375,0.9375 l 0,-2.25 -9.78125,0 z m -9.28125,0.8125 c 3.16203,0 5.17,3.02381 5.125,7.75 0,4.40774 -1.9398,7.1875 -5.0625,7.1875 -2.59631,0 -5.25,-2.41628 -5.25,-7.78125 0,-4.47893 2.0648,-7.15625 5.1875,-7.15625 z m -68.6875,0.1875 c 2.59445,0 3.28125,2.03545 3.28125,3.1875 0,2.57196 -1.82549,3.5625 -3.6875,3.5625 -0.6369,0 -1.4375,-0.0625 -1.4375,-0.0625 l 0,-6.625 c 0,0 0.74041,-0.0625 1.84375,-0.0625 z m -181.15625,9.375 c -3.40368,0 -6.45691,0.9906 -9.15625,2.96875 -2.69935,1.9744 -4.0625,4.73835 -4.0625,8.3125 0,2.54949 0.76077,4.73541 2.25,6.5 1.48923,1.7646 3.82928,3.44589 7.0625,5.0625 4.46768,2.21605 7.38815,3.82283 8.75,4.84375 1.35623,1.01904 2.03125,2.90692 2.03125,5.625 0,2.08679 -0.67502,4.03607 -2.03125,5.84375 -1.36185,1.80581 -3.56225,2.6875 -6.625,2.6875 -3.10584,0 -5.59738,-1.00065 -7.46875,-3.03125 -1.87324,-2.02497 -3.26458,-4.4702 -4.15625,-7.34375 l 0.1875,9.53125 c 2.25351,1.18577 4.20466,2.06244 5.84375,2.65625 1.63721,0.59195 3.65036,0.875 6.03125,0.875 3.61911,0 6.85771,-1.21167 9.75,-3.65625 2.89229,-2.44459 4.34375,-5.56167 4.34375,-9.34375 0,-2.71807 -0.54039,-4.86398 -1.625,-6.4375 -1.08273,-1.56978 -2.36635,-2.78894 -3.8125,-3.65625 -1.44614,-0.87293 -3.64841,-2.04203 -6.625,-3.53125 -3.48798,-1.74212 -5.78733,-3.14598 -6.9375,-4.1875 -1.14455,-1.04527 -1.75,-2.50738 -1.75,-4.375 0,-1.65408 0.60545,-3.17009 1.75,-4.59375 1.15017,-1.42367 2.9179,-2.15625 5.34375,-2.15625 2.76304,0 5.07796,0.88042 6.90625,2.65625 1.82828,1.77959 2.96919,3.67121 3.4375,5.625 l -0.3125,-8.40625 c -2.46894,-1.64097 -5.51151,-2.46875 -9.125,-2.46875 z m 101.59375,0 -7.8125,1.53125 c 0.76616,0.29598 1.32596,0.57528 1.6875,0.875 0.36154,0.29597 0.5625,0.84701 0.5625,1.65625 l 0,37.5 c 0,1.01717 -0.54917,1.81055 -1.65625,2.40625 l 9,0 c -0.67999,-0.38402 -1.14961,-0.7472 -1.40625,-1.09375 -0.25476,-0.33718 -0.375,-0.78927 -0.375,-1.34375 l 0,-20.6875 c 0.68186,-0.89354 1.65305,-1.65312 2.90625,-2.3125 1.25508,-0.65938 2.61449,-1 4.0625,-1 2.46519,0 4.20285,0.64811 5.25,1.96875 1.03965,1.32251 1.5625,3.07891 1.5625,5.25 l 0,16.78125 c 0,0.97971 -0.57045,1.79872 -1.71875,2.4375 l 8.8125,0 c -0.67998,-0.42523 -1.13207,-0.74524 -1.34375,-1 -0.21355,-0.25663 -0.34375,-0.72251 -0.34375,-1.40625 l 0,-18.875 c 0,-2.80425 -0.89924,-4.98208 -2.75,-6.53125 -1.85077,-1.54918 -4.13376,-2.34375 -6.8125,-2.34375 -2.93537,0 -6.13515,1.53159 -9.625,4.5625 l 0,-18.375 z m -19.28125,8.71875 -8.34375,8.53125 2.75,0 0,18.0625 c 0,2.89041 0.82217,5.14216 2.46875,6.78125 1.64096,1.63722 3.79998,2.4375 6.4375,2.4375 1.6597,0 3.14998,-0.49781 4.46875,-1.5 1.31689,-1.0078 1.96875,-1.94459 1.96875,-2.84375 -0.68373,0.59569 -1.24857,1.02462 -1.71875,1.28125 -0.46644,0.25851 -1.26979,0.375 -2.375,0.375 -3.87012,0 -5.8125,-2.20602 -5.8125,-6.625 l 0,-17.96875 6.71875,0 2.21875,-2.65625 -8.78125,0 0,-5.875 z m 156,0 -8.3125,8.53125 2.71875,0 0,18.0625 c 0,2.89041 0.82592,5.14216 2.46875,6.78125 1.64471,1.63722 3.79998,2.4375 6.4375,2.4375 1.65782,0 3.15186,-0.49781 4.46875,-1.5 1.32064,-1.0078 1.96875,-1.94459 1.96875,-2.84375 -0.68186,0.59569 -1.24856,1.02462 -1.71875,1.28125 -0.46831,0.25851 -1.26979,0.375 -2.375,0.375 -3.87012,0 -5.8125,-2.20602 -5.8125,-6.625 l 0,-17.96875 6.71875,0 2.21875,-2.65625 -8.78125,0 0,-5.875 z m -209.0625,5.09375 c -2.76678,0 -5.23704,0.75388 -7.40625,2.21875 -2.16922,1.46675 -3.81858,3.37975 -4.96875,5.78125 -1.14643,2.40337 -1.71875,4.88614 -1.71875,7.4375 0,3.9488 1.17471,7.47293 3.53125,10.59375 2.36216,3.1227 5.84431,4.6875 10.4375,4.6875 2.71995,0 5.15699,-0.71385 7.28125,-2.15625 2.12988,-1.44801 3.77736,-3.38665 4.96875,-5.8125 1.19325,-2.41836 1.78125,-4.85106 1.78125,-7.3125 0,-2.63752 -0.50344,-5.13094 -1.5,-7.46875 -1.00219,-2.33593 -2.56137,-4.23139 -4.6875,-5.71875 -2.12988,-1.48735 -4.70095,-2.25 -7.71875,-2.25 z m 22.75,0 -7.71875,1.53125 c 1.44427,0.46832 2.15625,1.32804 2.15625,2.5625 l 0,14.65625 c 0,4.20918 1.0463,7.26428 3.09375,9.15625 2.04746,1.89198 4.24411,2.8125 6.625,2.8125 2.74618,0 5.26088,-0.91234 7.53125,-2.75 l 1.125,-3.71875 c -0.96097,0.91977 -1.66837,1.43548 -2.59375,1.9375 -1.01904,0.55261 -2.22194,0.84375 -3.625,0.84375 -1.87324,0 -3.43243,-0.74135 -4.6875,-2.1875 -1.25507,-1.44614 -1.90625,-3.46618 -1.90625,-6.0625 l 0,-18.78125 z m 18.78125,0 -7.65625,1.53125 c 0.67999,0.17047 1.22038,0.44407 1.625,0.78125 0.40275,0.34093 0.59375,0.9308 0.59375,1.78125 l 0,19.46875 0.0937,2.75 c 0.007,-0.0112 0.0182,-0.0219 0.0312,-0.0312 0,1.27194 0.18657,2.19118 0.53125,2.78125 0.33906,0.59757 0.9308,1.14673 1.78125,1.65625 l 5.53125,-2.03125 c -1.7009,-0.25101 -2.53125,-1.45765 -2.53125,-3.625 l 0,-25.0625 z m 67.09375,0 c -3.44489,0 -6.78995,1.07449 -10.0625,3.1875 l 0.125,7.875 c 0.89541,-2.66375 2.03444,-4.76895 3.4375,-6.3125 1.40305,-1.54355 3.3279,-2.3125 5.75,-2.3125 1.87137,0 3.26084,0.54039 4.15625,1.625 0.89166,1.08461 1.3125,2.37768 1.3125,3.90625 0,1.61474 -0.0795,2.51704 -0.25,2.6875 -0.55448,0.64065 -1.34225,1.13156 -2.40625,1.46875 -1.064,0.33905 -2.87737,0.88319 -5.40625,1.625 -2.53075,0.74555 -4.25463,1.4043 -5.1875,2 -2.84921,1.69903 -4.28125,4.11291 -4.28125,7.21875 0,1.74212 0.64122,3.46411 1.9375,5.1875 1.29629,1.71776 3.20861,2.5625 5.71875,2.5625 2.96347,0 5.68169,-0.98439 8.15625,-3 l 1.15625,-3.375 c -1.98751,1.82641 -4.20171,2.78125 -6.6875,2.78125 -1.44427,0 -2.63772,-0.47712 -3.53125,-1.40625 -0.89354,-0.92538 -1.3125,-2.22842 -1.3125,-3.875 0,-1.47799 0.41896,-2.6452 1.3125,-3.53125 0.89353,-0.88604 2.22288,-1.66751 3.96875,-2.34375 3.6547,-1.13518 5.92084,-1.94356 6.8125,-2.40625 l 0,10.25 c -0.0169,0.0169 0.0806,2.23186 0.0937,2.21875 0.0393,1.50796 0.20028,2.51236 0.5,3.03125 0.29785,0.51514 0.86455,1.07248 1.71875,1.71875 l 4.93755,-2.1875 c -0.89167,-0.17047 -1.43393,-0.44978 -1.625,-0.875 -0.1892,-0.42336 -0.3125,-1.12963 -0.3125,-2.0625 l 0,-17.0625 c 0,-3.31002 -1.01317,-5.53989 -3.0625,-6.75 -2.04933,-1.21199 -4.37431,-1.84375 -6.96875,-1.84375 z m 21.1875,0 -7.78125,1.53125 c 0.67812,0.17046 1.2329,0.44219 1.65625,0.78125 0.42336,0.34093 0.625,0.9308 0.625,1.78125 l 0,23.65625 c 0,0.97409 -0.55103,1.77122 -1.65625,2.40625 l 8.9375,0 c -0.68186,-0.42148 -1.15149,-0.76091 -1.40625,-1.0625 -0.25289,-0.29598 -0.375,-0.74619 -0.375,-1.34375 l 0,-20.875 c 1.7852,-2.16547 3.92736,-3.25 6.4375,-3.25 4.42273,0 6.625,2.27423 6.625,6.78125 l 0,17.34375 c 0,0.97409 -0.54917,1.77122 -1.65625,2.40625 l 8.90625,0 c -0.55448,-0.33718 -0.97464,-0.66597 -1.25,-1.03125 -0.27537,-0.36341 -0.40625,-0.82052 -0.40625,-1.375 l 0,-19.15625 c 0,-0.42523 -0.0426,-0.72582 -0.125,-0.9375 1.91446,-2.68061 4.19439,-4.03125 6.875,-4.03125 2.33781,0 4.02788,0.67059 5.09375,1.96875 1.06213,1.29629 1.59375,2.97946 1.59375,5.0625 l 0,17.09375 c 0,0.89166 -0.59174,1.6888 -1.78125,2.40625 l 8.875,0 c -0.55448,-0.33718 -0.97276,-0.66597 -1.25,-1.03125 -0.2735,-0.35966 -0.40625,-0.81865 -0.40625,-1.375 l 0,-19 c 0,-2.76678 -0.97306,-4.90519 -2.90625,-6.4375 -1.93319,-1.52857 -4.10353,-2.3125 -6.53125,-2.3125 -1.91258,0 -3.78607,0.54789 -5.59375,1.625 -1.80956,1.07524 -3.30862,2.41021 -4.5,3.96875 -0.59757,-1.77209 -1.71531,-3.15841 -3.375,-4.125 -1.66344,-0.97034 -3.44301,-1.46875 -5.3125,-1.46875 -1.87137,0 -3.53137,0.44707 -5,1.3125 -1.463,0.8617 -2.90944,1.88611 -4.3125,3.0625 l 0,-4.375 z m 48.15625,0 -7.59375,1.6875 c 1.40306,0.42335 2.09375,1.29628 2.09375,2.65625 l 0,37.96875 c 0,1.1483 -0.54917,1.97106 -1.65625,2.4375 l 8.875,0 c -1.10896,-0.51514 -1.65625,-1.33042 -1.65625,-2.4375 l 0,-35.65625 c 0.72307,-0.88979 1.64479,-1.62306 2.75,-2.21875 1.10334,-0.59569 2.3569,-0.90625 3.71875,-0.90625 2.16734,0 4.12982,0.90604 5.9375,2.6875 1.80956,1.78145 2.71875,4.85222 2.71875,9.21875 0,4.02934 -0.8197,7.15836 -2.5,9.40625 -1.6803,2.24789 -3.9633,3.375 -6.8125,3.375 -2.08305,0 -3.04731,-0.43643 -4.84375,-1.96875 l 1.46875,3.9375 c 1.29816,0.36341 2.68762,0.53125 4.15625,0.53125 4.46581,0 8.00995,-1.61428 10.625,-4.84375 2.61692,-3.2276 3.90625,-6.77617 3.90625,-10.6875 0,-2.46332 -0.39384,-4.69939 -1.15625,-6.71875 -0.76616,-2.01748 -1.73803,-3.63176 -2.96875,-4.84375 -1.23447,-1.21199 -2.5657,-2.12493 -3.96875,-2.71875 -1.40306,-0.59569 -2.85639,-0.90625 -4.34375,-0.90625 -1.87137,0 -3.57395,0.42074 -5.125,1.21875 -1.55479,0.79425 -2.77455,1.68157 -3.625,2.6875 l 0,-3.90625 z m 54.90625,0 c -2.76491,0 -5.23703,0.75388 -7.40625,2.21875 -2.16922,1.46675 -3.81858,3.37975 -4.96875,5.78125 -1.15017,2.40337 -1.71875,4.88614 -1.71875,7.4375 0,3.9488 1.17096,7.47293 3.53125,10.59375 2.36029,3.1227 5.84244,4.6875 10.4375,4.6875 2.71995,0 5.12199,-0.71385 7.25,-2.15625 2.12425,-1.44801 3.80674,-3.38665 5,-5.8125 1.18764,-2.41836 1.78125,-4.85106 1.78125,-7.3125 0,-2.63752 -0.50531,-5.13094 -1.5,-7.46875 -1.00593,-2.33593 -2.56324,-4.23139 -4.6875,-5.71875 -2.12426,-1.48735 -4.70283,-2.25 -7.71875,-2.25 z m 22.78125,0 -7.6875,1.40625 c 1.40681,0.51327 2.125,1.41369 2.125,2.6875 l 0,23.65625 c 0,1.01904 -0.52788,1.81431 -1.59375,2.40625 l 8.8125,0 c -0.55823,-0.33718 -0.97838,-0.66597 -1.25,-1.03125 -0.27911,-0.36341 -0.40625,-0.82052 -0.40625,-1.375 l 0,-20.6875 c 0.76803,-0.93663 1.73734,-1.73623 2.90625,-2.375 1.1689,-0.63878 2.34174,-0.96875 3.53125,-0.96875 4.50889,0 6.78125,2.4665 6.78125,7.40625 l 0,16.625 c 0,1.01905 -0.55291,1.81243 -1.65625,2.40625 l 8.71875,0 c -0.71933,-0.54886 -1.18393,-0.93274 -1.375,-1.1875 -0.19111,-0.25663 -0.28125,-0.6624 -0.28125,-1.21875 l 0,-18.875 c 0,-1.8695 -0.44145,-3.45559 -1.3125,-4.75 -0.87294,-1.30003 -2.04576,-2.31005 -3.53125,-3.03125 -1.4911,-0.72307 -3.0221,-1.09375 -4.59375,-1.09375 -1.74586,0 -3.44282,0.50965 -5.125,1.46875 -1.68029,0.9591 -3.03971,1.98479 -4.0625,3.09375 l 0,-4.5625 z m -256.21875,2.34375 c 1.86949,-0.0412 3.42178,0.51859 4.65625,1.6875 1.23072,1.16328 2.18249,2.66175 2.84375,4.53125 0.65563,1.86575 1.06199,4.02102 1.1875,6.4375 0.12738,3.73337 -0.5025,6.8342 -1.84375,9.3125 -1.34124,2.48392 -3.30185,3.78074 -5.9375,3.90625 -2.51015,0.12925 -4.54083,-1.01915 -6.09375,-3.4375 -1.55291,-2.41836 -2.40387,-5.42525 -2.53125,-9.03125 -0.12738,-3.68841 0.46436,-6.81053 1.78125,-9.375 1.32064,-2.56634 3.29997,-3.90761 5.9375,-4.03125 z m 232.84375,0 c 1.8695,-0.0412 3.42178,0.51859 4.65625,1.6875 1.2326,1.16328 2.18249,2.66175 2.84375,4.53125 0.6575,1.86575 1.06199,4.02102 1.1875,6.4375 0.12925,3.73337 -0.47501,6.8342 -1.8125,9.3125 -1.34125,2.48392 -3.33684,3.78074 -5.96875,3.90625 -2.51202,0.12925 -4.54083,-1.01915 -6.09375,-3.4375 -1.55104,-2.41836 -2.40199,-5.42525 -2.53125,-9.03125 -0.12925,-3.68841 0.46248,-6.81053 1.78125,-9.375 1.31501,-2.56634 3.29997,-3.90761 5.9375,-4.03125 z"
       id="path36"
       style="fill:#005882;fill-opacity:1;fill-rule:nonzero;stroke:none" />
  </g>
</svg>
