<?xml version="1.0" encoding="utf-8"?>
<!-- Generator: Adobe Illustrator 16.0.0, SVG Export Plug-In . SVG Version: 6.00 Build 0)  -->
<!DOCTYPE svg PUBLIC "-//W3C//DTD SVG 1.1//EN" "http://www.w3.org/Graphics/SVG/1.1/DTD/svg11.dtd">
<svg version="1.1" id="Layer_1" xmlns="http://www.w3.org/2000/svg" xmlns:xlink="http://www.w3.org/1999/xlink" x="0px" y="0px"
	 width="215.231px" height="53.868px" viewBox="0 0 215.231 53.868" enable-background="new 0 0 215.231 53.868"
	 xml:space="preserve">
<g>
	<g>
		<path fill="#231F20" d="M70.792,20.679h4.875v0.732h-0.134c-1.503,0-1.73,0.658-1.73,1.562v4.682c0,4.194-3.045,4.981-5.282,4.981
			c-3.387,0-5.531-1.464-5.531-4.343v-5.603c0-0.943-0.261-1.28-1.316-1.28h-0.32v-0.732h5.886v0.732h-0.316
			c-0.795,0-1.336,0.357-1.336,1.28v5.603c0,2.295,1.688,3.084,3.399,3.084c2.466,0,3.691-1.389,3.691-3.459v-4.569
			c0-1.335-0.378-1.938-1.545-1.938h-0.341V20.679z"/>
		<path fill="#231F20" d="M78.654,30.29c0,0.695,0.316,0.993,0.863,0.993c0.45,0,0.883-0.28,1.429-0.938l0.265,0.526
			c-0.565,1.015-1.694,1.711-2.729,1.711c-1.276,0-2.128-0.718-2.128-2.332v-4.511H75.36v-0.493
			c1.128-0.468,2.411-1.842,2.747-2.893h0.547v2.35h2.46l-0.28,1.036h-2.18V30.29z"/>
		<path fill="#231F20" d="M87.304,32.375h-5.23v-0.601h0.131c0.773,0,1.053-0.338,1.053-1.314v-3.066
			c0-0.846-0.111-1.037-0.675-1.261l-0.509-0.209v-0.468l3.083-1.166h0.398v2.105h0.037c0.694-1.354,0.996-1.899,1.637-1.899
			c0.129,0,0.282,0.02,0.374,0.056l1.485,0.547c-0.225,0.791-0.525,1.464-0.897,1.992c-0.588-0.227-1.283-0.47-1.53-0.47
			c-0.375,0-0.691,0.265-1.106,0.846v3.048c0,0.904,0.282,1.26,1.261,1.26h0.488V32.375z"/>
		<path fill="#231F20" d="M97.269,30.194c-1.049,1.482-2.574,2.388-4.024,2.388c-2.049,0-3.44-1.579-3.44-3.854
			c0-2.483,1.677-4.231,4.022-4.231c1,0,1.79,0.32,2.371,0.903c1.111,1.109,0.585,2.163,1.244,2.5v0.545h-5.21
			c0.15,1.562,1.202,2.746,2.313,2.746c0.693,0,1.371-0.393,2.296-1.355L97.269,30.194z M94.846,27.713
			c-0.019-1.449-0.526-2.332-1.338-2.332c-0.77,0-1.463,0.993-1.334,2.332H94.846z"/>
		<path fill="#231F20" d="M106.354,30.57c-0.866,1.315-2.184,2.012-3.836,2.012c-2.294,0-3.951-1.563-3.951-3.726
			c0-2.462,2.128-4.36,4.87-4.36c1.618,0,2.842,0.677,2.842,1.598c0,0.563-0.375,0.942-0.962,0.942
			c-1.313,0-1.593-1.675-2.685-1.675c-0.941,0-1.584,1.147-1.584,2.838c0,2.032,0.963,3.403,2.354,3.403
			c0.848,0,1.635-0.43,2.407-1.334L106.354,30.57z"/>
		<path fill="#231F20" d="M110.433,30.477c0,1.184,0.322,1.297,0.979,1.297h0.188v0.6h-4.76v-0.6h0.269
			c0.96,0,1.033-0.377,1.033-1.374v-8.218c0-0.543-0.096-0.676-0.603-0.846l-0.546-0.187v-0.434l2.992-0.921h0.449v6.129
			c1.056-0.732,2.406-1.428,3.385-1.428c1.378,0,2.053,1.108,2.053,3.328v2.485c0,1.11,0.129,1.466,0.846,1.466h0.186v0.6h-4.438
			v-0.6h0.15c0.79,0,0.96-0.304,0.96-1.374v-2.839c0-1.014-0.47-1.654-1.222-1.654c-0.51,0-1.26,0.28-1.92,0.713V30.477z"/>
		<path fill="#231F20" d="M121.005,30.29c0,0.695,0.318,0.993,0.862,0.993c0.453,0,0.882-0.28,1.431-0.938l0.264,0.526
			c-0.565,1.015-1.694,1.711-2.729,1.711c-1.277,0-2.125-0.718-2.125-2.332v-4.511h-0.994v-0.493
			c1.129-0.468,2.406-1.842,2.742-2.893h0.549v2.35h2.459l-0.277,1.036h-2.182V30.29z"/>
		<polygon fill="#FFD300" points="22.741,0.906 23.252,0.251 24.118,0.146 24.772,0.659 29.093,0.659 29.747,0.146 30.611,0.251 
			31.124,0.905 35.321,1.94 36.078,1.597 36.892,1.907 37.233,2.666 41.055,4.67 41.872,4.521 42.588,5.014 42.738,5.834 
			45.974,8.698 46.802,8.75 47.378,9.401 47.329,10.231 49.781,13.781 50.574,14.029 50.981,14.801 50.734,15.594 52.266,19.635 
			52.979,20.065 53.186,20.91 52.757,21.621 53.276,25.91 53.864,26.498 53.864,27.372 53.276,27.958 52.757,32.243 53.188,32.954 
			52.981,33.801 52.268,34.229 50.736,38.27 50.983,39.063 50.576,39.836 49.784,40.083 47.329,43.637 47.378,44.469 46.802,45.12 
			45.974,45.168 42.742,48.032 42.592,48.85 41.877,49.346 41.059,49.194 37.232,51.202 36.892,51.961 36.078,52.27 35.32,51.928 
			31.129,52.963 30.616,53.618 29.751,53.721 29.098,53.208 24.776,53.208 24.122,53.721 23.258,53.618 22.745,52.963 
			18.549,51.928 17.792,52.27 16.978,51.961 16.636,51.202 12.814,49.198 11.997,49.348 11.28,48.852 11.131,48.034 7.895,45.168 
			7.066,45.12 6.488,44.469 6.537,43.637 4.086,40.088 3.292,39.84 2.887,39.069 3.135,38.274 1.602,34.233 0.891,33.805 
			0.682,32.958 1.112,32.249 0.591,27.958 0.003,27.372 0.003,26.498 0.591,25.91 1.111,21.627 0.68,20.914 0.889,20.069 
			1.6,19.639 3.133,15.598 2.885,14.805 3.29,14.033 4.083,13.785 6.538,10.231 6.488,9.401 7.066,8.75 7.895,8.698 11.126,5.836 
			11.275,5.018 11.993,4.523 12.81,4.674 16.636,2.666 16.978,1.907 17.792,1.597 18.549,1.94 		"/>
	</g>
	<g>
		<defs>
			<polygon id="SVGID_1_" points="29.093,0.659 24.772,0.659 24.119,0.146 23.252,0.252 22.741,0.906 18.549,1.94 17.792,1.598 
				16.978,1.908 16.637,2.666 12.81,4.674 11.993,4.523 11.276,5.018 11.126,5.836 7.895,8.698 7.066,8.75 6.488,9.401 
				6.538,10.231 4.084,13.786 3.29,14.033 2.885,14.805 3.132,15.598 1.601,19.639 0.89,20.069 0.681,20.915 1.111,21.627 
				0.591,25.911 0.003,26.498 0.003,27.372 0.591,27.958 1.112,32.249 0.682,32.958 0.891,33.805 1.602,34.233 3.134,38.274 
				2.888,39.069 3.292,39.84 4.086,40.088 6.537,43.637 6.488,44.469 7.066,45.12 7.895,45.168 11.131,48.034 11.279,48.852 
				11.997,49.348 12.815,49.198 16.636,51.202 16.978,51.961 17.792,52.27 18.549,51.928 22.745,52.963 23.257,53.618 
				24.122,53.721 24.777,53.208 29.098,53.208 29.752,53.721 30.616,53.618 31.129,52.963 35.32,51.928 36.078,52.27 36.892,51.961 
				37.233,51.202 41.059,49.194 41.877,49.346 42.592,48.85 42.742,48.032 45.974,45.168 46.802,45.12 47.378,44.469 47.33,43.637 
				49.785,40.083 50.577,39.836 50.983,39.063 50.735,38.27 52.268,34.229 52.981,33.801 53.188,32.954 52.758,32.243 
				53.276,27.958 53.864,27.372 53.864,26.498 53.276,25.911 52.758,21.621 53.186,20.91 52.979,20.065 52.266,19.635 
				50.733,15.594 50.981,14.801 50.574,14.03 49.78,13.781 47.33,10.231 47.378,9.401 46.802,8.75 45.974,8.698 42.738,5.834 
				42.588,5.014 41.872,4.521 41.055,4.671 37.233,2.666 36.892,1.908 36.078,1.598 35.321,1.94 31.124,0.905 30.611,0.252 
				29.747,0.146 			"/>
		</defs>
		<clipPath id="SVGID_2_">
			<use xlink:href="#SVGID_1_"  overflow="visible"/>
		</clipPath>
		<path clip-path="url(#SVGID_2_)" fill="#FFFFFF" d="M31.581,3.453c0.21,0.127,0.561,0.311,0.827,0.375
			c0.303,0.073,0.637,0.092,0.724-0.261c0.084-0.346-0.347-0.485-0.753-0.723c-0.407-0.238-0.796-0.574-0.619-1.299
			c0.199-0.806,1.102-0.982,1.811-0.808c0.417,0.103,0.783,0.294,1.132,0.536l-0.445,0.624c-0.227-0.152-0.553-0.301-0.753-0.35
			c-0.467-0.114-0.681,0.011-0.739,0.25c-0.036,0.152,0.04,0.308,0.451,0.507c0.906,0.451,1.071,0.899,0.944,1.425
			c-0.227,0.924-1.056,1.096-1.89,0.891c-0.389-0.094-0.775-0.282-1.113-0.497L31.581,3.453z"/>
		<path clip-path="url(#SVGID_2_)" fill="none" stroke="#FFFFFF" stroke-width="0.4" d="M31.581,3.453
			c0.21,0.127,0.561,0.311,0.827,0.375c0.303,0.073,0.637,0.092,0.724-0.261c0.084-0.346-0.347-0.485-0.753-0.723
			c-0.407-0.238-0.796-0.574-0.619-1.299c0.199-0.806,1.102-0.982,1.811-0.808c0.417,0.103,0.783,0.294,1.132,0.536l-0.445,0.624
			c-0.227-0.152-0.553-0.301-0.753-0.35c-0.467-0.114-0.681,0.011-0.739,0.25c-0.036,0.152,0.04,0.308,0.451,0.507
			c0.906,0.451,1.071,0.899,0.944,1.425c-0.227,0.924-1.056,1.096-1.89,0.891c-0.389-0.094-0.775-0.282-1.113-0.497L31.581,3.453z"
			/>
		<path clip-path="url(#SVGID_2_)" fill="#FFFFFF" d="M39.505,2.99c1.16,0.608,1.413,1.78,0.894,2.772
			c-0.522,0.994-1.631,1.449-2.79,0.842c-1.165-0.611-1.419-1.783-0.898-2.777C37.232,2.835,38.341,2.379,39.505,2.99 M37.978,5.889
			c0.512,0.269,1.11,0.141,1.502-0.607c0.394-0.753,0.161-1.316-0.352-1.585c-0.508-0.267-1.103-0.14-1.497,0.611
			S37.469,5.623,37.978,5.889"/>
		<path clip-path="url(#SVGID_2_)" fill="none" stroke="#FFFFFF" stroke-width="0.4" d="M39.505,2.99
			c1.16,0.608,1.413,1.78,0.894,2.772c-0.522,0.994-1.631,1.449-2.79,0.842c-1.165-0.611-1.419-1.783-0.898-2.777
			C37.232,2.835,38.341,2.379,39.505,2.99z M37.978,5.889c0.512,0.269,1.11,0.141,1.502-0.607c0.394-0.753,0.161-1.316-0.352-1.585
			c-0.508-0.267-1.103-0.14-1.497,0.611S37.469,5.623,37.978,5.889z"/>
		<path clip-path="url(#SVGID_2_)" fill="#FFFFFF" d="M43.968,5.875l-2.506,3.072c0.658,0.534,1.285,1.098,1.881,1.7l0.606-0.602
			C43.558,9.65,43.151,9.271,42.732,8.9l2.04-2.345"/>
		<path clip-path="url(#SVGID_2_)" fill="none" stroke="#FFFFFF" stroke-width="0.4" d="M43.968,5.875l-2.506,3.072
			c0.658,0.534,1.285,1.098,1.881,1.7l0.606-0.602C43.558,9.65,43.151,9.271,42.732,8.9l2.04-2.345"/>
		<path clip-path="url(#SVGID_2_)" fill="#FFFFFF" d="M52.446,17.833l-3.75,1.332c-0.1-0.281-0.214-0.578-0.329-0.859l3.702-1.479"
			/>
		<path clip-path="url(#SVGID_2_)" fill="none" stroke="#FFFFFF" stroke-width="0.4" d="M52.446,17.833l-3.75,1.332
			c-0.1-0.281-0.214-0.578-0.329-0.859l3.702-1.479"/>
		<path clip-path="url(#SVGID_2_)" fill="#FFFFFF" d="M53.927,24.704l-3.066-0.619l-0.002-0.01l2.837-1.293l-0.179-1.041
			l-3.707,1.934c0.054,0.361,0.093,0.719,0.128,1.08l4.049,0.953"/>
		<path clip-path="url(#SVGID_2_)" fill="none" stroke="#FFFFFF" stroke-width="0.4" d="M53.927,24.704l-3.066-0.619l-0.002-0.01
			l2.837-1.293l-0.179-1.041l-3.707,1.934c0.054,0.361,0.093,0.719,0.128,1.08l4.049,0.953"/>
		<path clip-path="url(#SVGID_2_)" fill="#FFFFFF" d="M50.804,28.725c-0.102,0.225-0.239,0.594-0.272,0.865
			c-0.037,0.311-0.017,0.645,0.344,0.688c0.355,0.043,0.442-0.402,0.627-0.836c0.189-0.43,0.474-0.857,1.218-0.768
			c0.823,0.098,1.106,0.975,1.019,1.699c-0.051,0.43-0.2,0.812-0.395,1.189l-0.676-0.367c0.125-0.242,0.235-0.584,0.258-0.791
			c0.057-0.475-0.095-0.674-0.336-0.701c-0.155-0.02-0.302,0.074-0.45,0.51c-0.34,0.951-0.764,1.17-1.3,1.105
			c-0.945-0.113-1.216-0.916-1.114-1.768c0.048-0.398,0.185-0.803,0.359-1.162L50.804,28.725z"/>
		<path clip-path="url(#SVGID_2_)" fill="none" stroke="#FFFFFF" stroke-width="0.4" d="M50.804,28.725
			c-0.102,0.225-0.239,0.594-0.272,0.865c-0.037,0.311-0.017,0.645,0.344,0.688c0.355,0.043,0.442-0.402,0.627-0.836
			c0.189-0.43,0.474-0.857,1.218-0.768c0.823,0.098,1.106,0.975,1.019,1.699c-0.051,0.43-0.2,0.812-0.395,1.189l-0.676-0.367
			c0.125-0.242,0.235-0.584,0.258-0.791c0.057-0.475-0.095-0.674-0.336-0.701c-0.155-0.02-0.302,0.074-0.45,0.51
			c-0.34,0.951-0.764,1.17-1.3,1.105c-0.945-0.113-1.216-0.916-1.114-1.768c0.048-0.398,0.185-0.803,0.359-1.162L50.804,28.725z"/>
		<path clip-path="url(#SVGID_2_)" fill="#FFFFFF" d="M51.666,37.989l-0.917-0.408c0.134-0.297,0.264-0.604,0.385-0.91l-2.761-1.115
			c0.113-0.281,0.224-0.58,0.323-0.861l2.808,1.006c0.107-0.305,0.213-0.611,0.309-0.918l0.951,0.299"/>
		<path clip-path="url(#SVGID_2_)" fill="none" stroke="#FFFFFF" stroke-width="0.4" d="M51.666,37.989l-0.917-0.408
			c0.134-0.297,0.264-0.604,0.385-0.91l-2.761-1.115c0.113-0.281,0.224-0.58,0.323-0.861l2.808,1.006
			c0.107-0.305,0.213-0.611,0.309-0.918l0.951,0.299"/>
		<path clip-path="url(#SVGID_2_)" fill="#FFFFFF" d="M48.907,42.766l-3.224-2.332c0.175-0.244,0.356-0.51,0.521-0.76l3.318,2.207"
			/>
		<path clip-path="url(#SVGID_2_)" fill="none" stroke="#FFFFFF" stroke-width="0.4" d="M48.907,42.766l-3.224-2.332
			c0.175-0.244,0.356-0.51,0.521-0.76l3.318,2.207"/>
		<path clip-path="url(#SVGID_2_)" fill="#FFFFFF" d="M43.689,48.213l-0.621-0.781c0.258-0.205,0.514-0.412,0.765-0.627
			l-1.926-2.273c0.231-0.195,0.467-0.408,0.688-0.611l2.015,2.195c0.24-0.219,0.474-0.441,0.7-0.67l0.703,0.711"/>
		<path clip-path="url(#SVGID_2_)" fill="none" stroke="#FFFFFF" stroke-width="0.4" d="M43.689,48.213l-0.621-0.781
			c0.258-0.205,0.514-0.412,0.765-0.627l-1.926-2.273c0.231-0.195,0.467-0.408,0.688-0.611l2.015,2.195
			c0.24-0.219,0.474-0.441,0.7-0.67l0.703,0.711"/>
		<path clip-path="url(#SVGID_2_)" fill="#FFFFFF" d="M39.034,51.172l-1.777-3.57c0.27-0.137,0.55-0.283,0.814-0.432l1.916,3.498"/>
		<path clip-path="url(#SVGID_2_)" fill="none" stroke="#FFFFFF" stroke-width="0.4" d="M39.034,51.172l-1.777-3.57
			c0.27-0.137,0.55-0.283,0.814-0.432l1.916,3.498"/>
		<path clip-path="url(#SVGID_2_)" fill="#FFFFFF" d="M31.457,53.643l-0.687-3.918c0.779-0.131,1.553-0.303,2.315-0.516l0.294,1.008
			c0.415-0.115,0.826-0.244,1.235-0.383l0.202-0.777l0.599,1.346l-0.784,2.504L31.457,53.643z"/>
		<path clip-path="url(#SVGID_2_)" fill="none" stroke="#FFFFFF" stroke-width="0.4" d="M31.457,53.643l-0.687-3.918
			c0.779-0.131,1.553-0.303,2.315-0.516l0.294,1.008c0.415-0.115,0.826-0.244,1.235-0.383l0.202-0.777l0.599,1.346l-0.784,2.504
			L31.457,53.643z"/>
		<path clip-path="url(#SVGID_2_)" fill="#FFFFFF" d="M19.949,53.106l1.035-3.848c0.292,0.078,0.602,0.15,0.898,0.217l-0.884,3.891"
			/>
		<path clip-path="url(#SVGID_2_)" fill="none" stroke="#FFFFFF" stroke-width="0.4" d="M19.949,53.106l1.035-3.848
			c0.292,0.078,0.602,0.15,0.898,0.217l-0.884,3.891"/>
		<path clip-path="url(#SVGID_2_)" fill="#FFFFFF" d="M15.452,51.469l1.699-3.598c-0.766-0.359-1.512-0.758-2.235-1.197l-0.444,0.73
			c0.476,0.289,0.961,0.561,1.456,0.816L14.494,51"/>
		<path clip-path="url(#SVGID_2_)" fill="none" stroke="#FFFFFF" stroke-width="0.4" d="M15.452,51.469l1.699-3.598
			c-0.766-0.359-1.512-0.758-2.235-1.197l-0.444,0.73c0.476,0.289,0.961,0.561,1.456,0.816L14.494,51"/>
		<path clip-path="url(#SVGID_2_)" fill="#FFFFFF" d="M9.917,48.002l2.504-3.082c-0.657-0.531-1.286-1.098-1.882-1.699l-0.606,0.604
			c0.393,0.396,0.799,0.775,1.218,1.143l-2.045,2.338"/>
		<path clip-path="url(#SVGID_2_)" fill="none" stroke="#FFFFFF" stroke-width="0.4" d="M9.917,48.002l2.504-3.082
			c-0.657-0.531-1.286-1.098-1.882-1.699l-0.606,0.604c0.393,0.396,0.799,0.775,1.218,1.143l-2.045,2.338"/>
		<path clip-path="url(#SVGID_2_)" fill="#FFFFFF" d="M3.561,40.618l4.028-1.043c0.198,0.303,0.403,0.602,0.615,0.895l-2.378,3.43
			l-0.648-0.832l1.912-2.461l-0.006-0.008l-2.999,0.881"/>
		<path clip-path="url(#SVGID_2_)" fill="none" stroke="#FFFFFF" stroke-width="0.4" d="M3.561,40.618l4.028-1.043
			c0.198,0.303,0.403,0.602,0.615,0.895l-2.378,3.43l-0.648-0.832l1.912-2.461l-0.006-0.008l-2.999,0.881"/>
		<path clip-path="url(#SVGID_2_)" fill="#FFFFFF" d="M4.975,36.465c-0.015-0.246-0.064-0.641-0.162-0.895
			c-0.111-0.293-0.286-0.578-0.624-0.449c-0.334,0.127-0.203,0.562-0.168,1.031c0.037,0.471-0.019,0.98-0.717,1.246
			c-0.776,0.297-1.433-0.348-1.694-1.027c-0.154-0.402-0.203-0.812-0.203-1.238l0.768,0.014c0.003,0.271,0.065,0.623,0.139,0.818
			c0.17,0.447,0.396,0.553,0.625,0.463c0.146-0.055,0.231-0.205,0.161-0.658c-0.144-1.002,0.13-1.391,0.636-1.584
			c0.89-0.34,1.5,0.242,1.807,1.045c0.144,0.375,0.209,0.797,0.226,1.197L4.975,36.465z"/>
		<path clip-path="url(#SVGID_2_)" fill="none" stroke="#FFFFFF" stroke-width="0.4" d="M4.975,36.465
			c-0.015-0.246-0.064-0.641-0.162-0.895c-0.111-0.293-0.286-0.578-0.624-0.449c-0.334,0.127-0.203,0.562-0.168,1.031
			c0.037,0.471-0.019,0.98-0.717,1.246c-0.776,0.297-1.433-0.348-1.694-1.027c-0.154-0.402-0.203-0.812-0.203-1.238l0.768,0.014
			c0.003,0.271,0.065,0.623,0.139,0.818c0.17,0.447,0.396,0.553,0.625,0.463c0.146-0.055,0.231-0.205,0.161-0.658
			c-0.144-1.002,0.13-1.391,0.636-1.584c0.89-0.34,1.5,0.242,1.807,1.045c0.144,0.375,0.209,0.797,0.226,1.197L4.975,36.465z"/>
		<path clip-path="url(#SVGID_2_)" fill="#FFFFFF" d="M-0.092,28.651l0.99-0.062c0.021,0.326,0.049,0.656,0.084,0.986l2.963-0.299
			c0.032,0.299,0.072,0.617,0.115,0.914l-2.953,0.416c0.045,0.318,0.097,0.639,0.154,0.955l-0.985,0.178"/>
		<path clip-path="url(#SVGID_2_)" fill="none" stroke="#FFFFFF" stroke-width="0.4" d="M-0.092,28.651l0.99-0.062
			c0.021,0.326,0.049,0.656,0.084,0.986l2.963-0.299c0.032,0.299,0.072,0.617,0.115,0.914l-2.953,0.416
			c0.045,0.318,0.097,0.639,0.154,0.955l-0.985,0.178"/>
		<path clip-path="url(#SVGID_2_)" fill="#FFFFFF" d="M4.277,22.413c-0.087,0.354-0.14,0.687-0.19,1.033
			c0,0-0.612,0.166-0.897,0.272c-0.346,0.125-0.67,0.33-0.72,0.595c-0.01,0.053-0.013,0.116-0.016,0.149l1.493,0.146
			c-0.03,0.305-0.055,0.61-0.073,0.916l-3.83-0.218c0.033-0.545,0.083-1.084,0.147-1.625c0.094-0.768,0.471-1.399,1.168-1.348
			c0.572,0.039,0.935,0.426,0.947,1.039l0.018,0.004c0.15-0.176,0.283-0.244,0.525-0.381C3.228,22.775,4.277,22.413,4.277,22.413"/>
		<path clip-path="url(#SVGID_2_)" fill="none" stroke="#FFFFFF" stroke-width="0.4" d="M4.277,22.413
			c-0.087,0.354-0.14,0.687-0.19,1.033c0,0-0.612,0.166-0.897,0.272c-0.346,0.125-0.67,0.33-0.72,0.595
			c-0.01,0.053-0.013,0.116-0.016,0.149l1.493,0.146c-0.03,0.305-0.055,0.61-0.073,0.916l-3.83-0.218
			c0.033-0.545,0.083-1.084,0.147-1.625c0.094-0.768,0.471-1.399,1.168-1.348c0.572,0.039,0.935,0.426,0.947,1.039l0.018,0.004
			c0.15-0.176,0.283-0.244,0.525-0.381C3.228,22.775,4.277,22.413,4.277,22.413z"/>
		<path clip-path="url(#SVGID_2_)" fill="#FFFFFF" d="M1.813,16.792l4.303,0.117c-0.154,0.319-0.301,0.645-0.441,0.969L4.77,17.836
			c-0.172,0.416-0.332,0.838-0.479,1.266l0.707,0.57c-0.108,0.324-0.208,0.652-0.301,0.984l-3.259-2.877"/>
		<path clip-path="url(#SVGID_2_)" fill="none" stroke="#FFFFFF" stroke-width="0.4" d="M1.813,16.792l4.303,0.117
			c-0.154,0.319-0.301,0.645-0.441,0.969L4.77,17.836c-0.172,0.416-0.332,0.838-0.479,1.266l0.707,0.57
			c-0.108,0.324-0.208,0.652-0.301,0.984l-3.259-2.877"/>
		<path clip-path="url(#SVGID_2_)" fill="#FFFFFF" d="M8.445,7.143l2.908,0.973L9.674,6.057l0.791-0.623l2.372,3.191
			c-0.271,0.209-0.538,0.424-0.799,0.645L9.232,8.342l1.773,1.854c-0.202,0.193-0.4,0.386-0.595,0.588L7.563,8.008"/>
		<path clip-path="url(#SVGID_2_)" fill="none" stroke="#FFFFFF" stroke-width="0.4" d="M8.445,7.143l2.908,0.973L9.674,6.057
			l0.791-0.623l2.372,3.191c-0.271,0.209-0.538,0.424-0.799,0.645L9.232,8.342l1.773,1.854c-0.202,0.193-0.4,0.386-0.595,0.588
			L7.563,8.008"/>
		<path clip-path="url(#SVGID_2_)" fill="#FFFFFF" d="M14.363,2.99c1.161-0.61,2.269-0.153,2.791,0.839
			c0.52,0.994,0.268,2.164-0.893,2.775c-1.165,0.609-2.273,0.154-2.794-0.84C12.945,4.772,13.199,3.601,14.363,2.99 M15.884,5.895
			c0.513-0.271,0.746-0.834,0.352-1.584c-0.395-0.75-0.991-0.879-1.503-0.608c-0.509,0.266-0.742,0.83-0.348,1.581
			C14.778,6.032,15.374,6.161,15.884,5.895"/>
		<path clip-path="url(#SVGID_2_)" fill="none" stroke="#FFFFFF" stroke-width="0.4" d="M14.363,2.99
			c1.161-0.61,2.269-0.153,2.791,0.839c0.52,0.994,0.268,2.164-0.893,2.775c-1.165,0.609-2.273,0.154-2.794-0.84
			C12.945,4.772,13.199,3.601,14.363,2.99z M15.884,5.895c0.513-0.271,0.746-0.834,0.352-1.584c-0.395-0.75-0.991-0.879-1.503-0.608
			c-0.509,0.266-0.742,0.83-0.348,1.581C14.778,6.032,15.374,6.161,15.884,5.895z"/>
		<path clip-path="url(#SVGID_2_)" fill="#FFFFFF" d="M20.133,3.984c0.245,0.013,0.641,0.013,0.906-0.052
			c0.304-0.076,0.608-0.214,0.522-0.568c-0.087-0.345-0.534-0.269-1.004-0.289c-0.471-0.021-0.971-0.139-1.152-0.863
			c-0.2-0.807,0.52-1.381,1.228-1.559c0.417-0.103,0.83-0.103,1.251-0.051l-0.103,0.76c-0.273-0.029-0.629-0.009-0.829,0.04
			c-0.466,0.116-0.598,0.327-0.539,0.564c0.037,0.152,0.179,0.254,0.635,0.24c1.011-0.022,1.365,0.297,1.496,0.823
			c0.23,0.925-0.423,1.461-1.256,1.669c-0.39,0.096-0.818,0.109-1.216,0.076L20.133,3.984z"/>
		<path clip-path="url(#SVGID_2_)" fill="none" stroke="#FFFFFF" stroke-width="0.4" d="M20.133,3.984
			c0.245,0.013,0.641,0.013,0.906-0.052c0.304-0.076,0.608-0.214,0.522-0.568c-0.087-0.345-0.534-0.269-1.004-0.289
			c-0.471-0.021-0.971-0.139-1.152-0.863c-0.2-0.807,0.52-1.381,1.228-1.559c0.417-0.103,0.83-0.103,1.251-0.051l-0.103,0.76
			c-0.273-0.029-0.629-0.009-0.829,0.04c-0.466,0.116-0.598,0.327-0.539,0.564c0.037,0.152,0.179,0.254,0.635,0.24
			c1.011-0.022,1.365,0.297,1.496,0.823c0.23,0.925-0.423,1.461-1.256,1.669c-0.39,0.096-0.818,0.109-1.216,0.076L20.133,3.984z"/>
	</g>
	<g>
		<defs>
			<path id="SVGID_3_" d="M0,26.934c0,14.875,12.059,26.934,26.935,26.934c14.875,0,26.932-12.059,26.932-26.934
				C53.867,12.061,41.81,0,26.935,0C12.059,0,0,12.061,0,26.934"/>
		</defs>
		<clipPath id="SVGID_4_">
			<use xlink:href="#SVGID_3_"  overflow="visible"/>
		</clipPath>
		<polyline clip-path="url(#SVGID_4_)" fill="#231F20" points="24.078,-0.077 26.935,16.16 29.791,-0.077 		"/>
		<polyline clip-path="url(#SVGID_4_)" fill="#231F20" points="30.628,0.024 29.514,16.473 36.174,1.391 		"/>
		<polyline clip-path="url(#SVGID_4_)" fill="#231F20" points="36.957,1.688 31.941,17.396 42.016,4.343 		"/>
		<polyline clip-path="url(#SVGID_4_)" fill="#231F20" points="42.708,4.823 34.08,18.87 46.983,8.612 		"/>
		<polyline clip-path="url(#SVGID_4_)" fill="#231F20" points="47.54,9.239 35.802,20.814 50.786,13.939 		"/>
		<polyline clip-path="url(#SVGID_4_)" fill="#231F20" points="51.175,14.686 37.008,23.112 53.201,20.026 		"/>
		<polyline clip-path="url(#SVGID_4_)" fill="#231F20" points="53.405,20.844 37.631,25.637 54.092,26.514 		"/>
		<polyline clip-path="url(#SVGID_4_)" fill="#231F20" points="54.092,27.354 37.631,28.233 53.405,33.026 		"/>
		<polyline clip-path="url(#SVGID_4_)" fill="#231F20" points="53.202,33.84 37.009,30.754 51.176,39.184 		"/>
		<polyline clip-path="url(#SVGID_4_)" fill="#231F20" points="50.786,39.93 35.802,33.055 47.54,44.629 		"/>
		<polyline clip-path="url(#SVGID_4_)" fill="#231F20" points="46.983,45.258 34.08,34.997 42.708,49.045 		"/>
		<polyline clip-path="url(#SVGID_4_)" fill="#231F20" points="42.016,49.526 31.941,36.475 36.957,52.18 		"/>
		<polyline clip-path="url(#SVGID_4_)" fill="#231F20" points="29.791,53.944 26.935,37.708 24.078,53.944 		"/>
		<polyline clip-path="url(#SVGID_4_)" fill="#231F20" points="23.242,53.844 24.355,37.395 17.695,52.475 		"/>
		<polyline clip-path="url(#SVGID_4_)" fill="#231F20" points="16.913,52.18 21.929,36.475 11.854,49.526 		"/>
		<polyline clip-path="url(#SVGID_4_)" fill="#231F20" points="11.16,49.045 19.79,34.997 6.884,45.258 		"/>
		<polyline clip-path="url(#SVGID_4_)" fill="#231F20" points="6.33,44.629 18.068,33.055 3.083,39.93 		"/>
		<polyline clip-path="url(#SVGID_4_)" fill="#231F20" points="2.692,39.184 16.86,30.754 0.666,33.84 		"/>
		<polyline clip-path="url(#SVGID_4_)" fill="#231F20" points="0.464,33.026 16.239,28.233 -0.225,27.354 		"/>
		<polyline clip-path="url(#SVGID_4_)" fill="#231F20" points="-0.224,26.514 16.239,25.637 0.465,20.844 		"/>
		<polyline clip-path="url(#SVGID_4_)" fill="#231F20" points="0.666,20.026 16.86,23.112 2.692,14.686 		"/>
		<polyline clip-path="url(#SVGID_4_)" fill="#231F20" points="3.083,13.94 18.068,20.815 6.33,9.239 		"/>
		<polyline clip-path="url(#SVGID_4_)" fill="#231F20" points="6.884,8.612 19.79,18.87 11.16,4.823 		"/>
		<polyline clip-path="url(#SVGID_4_)" fill="#231F20" points="11.854,4.344 21.929,17.395 16.913,1.688 		"/>
		<polyline clip-path="url(#SVGID_4_)" fill="#231F20" points="17.696,1.392 24.355,16.474 23.242,0.024 		"/>
		<path clip-path="url(#SVGID_4_)" fill="#FFFFFF" d="M43.968,5.875l-2.506,3.072c0.658,0.534,1.285,1.098,1.881,1.7l0.606-0.602
			C43.558,9.65,43.151,9.271,42.732,8.9l2.04-2.345"/>
		<path clip-path="url(#SVGID_4_)" fill="#FFFFFF" d="M52.446,17.833l-3.75,1.332c-0.1-0.281-0.214-0.578-0.329-0.859l3.702-1.479"
			/>
		<path clip-path="url(#SVGID_4_)" fill="#FFFFFF" d="M53.927,24.704l-3.066-0.619l-0.002-0.01l2.837-1.293l-0.179-1.041
			l-3.707,1.934c0.054,0.361,0.093,0.719,0.128,1.08l4.049,0.953"/>
		<path clip-path="url(#SVGID_4_)" fill="#FFFFFF" d="M51.666,37.989l-0.917-0.408c0.134-0.297,0.264-0.604,0.385-0.91l-2.761-1.115
			c0.113-0.281,0.224-0.58,0.323-0.861l2.808,1.006c0.107-0.305,0.213-0.611,0.309-0.918l0.951,0.299"/>
		<path clip-path="url(#SVGID_4_)" fill="#FFFFFF" d="M48.907,42.766l-3.224-2.332c0.175-0.244,0.356-0.51,0.521-0.76l3.318,2.207"
			/>
		<path clip-path="url(#SVGID_4_)" fill="#FFFFFF" d="M43.689,48.213l-0.621-0.781c0.258-0.205,0.514-0.412,0.765-0.627
			l-1.926-2.273c0.231-0.195,0.467-0.408,0.688-0.611l2.015,2.195c0.24-0.219,0.474-0.441,0.7-0.67l0.703,0.711"/>
		<path clip-path="url(#SVGID_4_)" fill="#FFFFFF" d="M39.034,51.172l-1.777-3.57c0.27-0.137,0.55-0.283,0.814-0.432l1.916,3.498"/>
		<polyline clip-path="url(#SVGID_4_)" fill="#231F20" points="36.174,52.475 29.514,37.395 30.628,53.844 		"/>
	</g>
	<g>
		<defs>
			<path id="SVGID_5_" d="M30.613,53.618c1.894-0.258,3.725-0.713,5.472-1.345l-6.571-14.878L30.613,53.618z"/>
		</defs>
		<clipPath id="SVGID_6_">
			<use xlink:href="#SVGID_5_"  overflow="visible"/>
		</clipPath>
		<path clip-path="url(#SVGID_6_)" fill="#FFFFFF" d="M34.632,52.907l0.783-2.504l-0.599-1.346l-0.202,0.777
			c-0.409,0.139-0.82,0.268-1.235,0.383l-0.293-1.008c-0.763,0.213-1.537,0.385-2.316,0.516l0.141,0.842
			c0.478-0.08,0.954-0.174,1.486-0.299l0.168,0.664c-0.5,0.115-0.941,0.205-1.384,0.283l0.125,0.758
			c0.468-0.08,0.919-0.174,1.444-0.293l0.162,0.648c-0.579,0.135-1.096,0.238-1.616,0.326l0.161,0.988 M33.941,52.315l-0.369-1.352
			c0.266-0.074,0.563-0.162,0.84-0.248l-0.422,1.588L33.941,52.315z"/>
	</g>
	<g>
		<defs>
			<path id="SVGID_7_" d="M0,26.934c0,14.875,12.059,26.934,26.935,26.934c14.875,0,26.932-12.059,26.932-26.934
				C53.867,12.061,41.81,0,26.935,0C12.059,0,0,12.061,0,26.934"/>
		</defs>
		<clipPath id="SVGID_8_">
			<use xlink:href="#SVGID_7_"  overflow="visible"/>
		</clipPath>
		<path clip-path="url(#SVGID_8_)" fill="#FFFFFF" d="M19.949,53.106l1.035-3.848c0.292,0.078,0.602,0.15,0.898,0.217l-0.884,3.891"
			/>
		<path clip-path="url(#SVGID_8_)" fill="#FFFFFF" d="M15.452,51.469l1.699-3.598c-0.766-0.359-1.512-0.758-2.235-1.197l-0.444,0.73
			c0.476,0.289,0.961,0.561,1.456,0.816L14.494,51"/>
		<path clip-path="url(#SVGID_8_)" fill="#FFFFFF" d="M9.917,48.002l2.504-3.082c-0.657-0.531-1.286-1.098-1.882-1.699l-0.606,0.604
			c0.393,0.396,0.799,0.775,1.218,1.143l-2.045,2.338"/>
		<path clip-path="url(#SVGID_8_)" fill="#FFFFFF" d="M3.561,40.618l4.028-1.043c0.198,0.303,0.403,0.602,0.615,0.895l-2.378,3.43
			l-0.648-0.832l1.912-2.461l-0.006-0.008l-2.999,0.881"/>
		<path clip-path="url(#SVGID_8_)" fill="#FFFFFF" d="M-0.092,28.651l0.99-0.062c0.021,0.326,0.049,0.656,0.084,0.986l2.963-0.299
			c0.032,0.299,0.072,0.617,0.115,0.914l-2.953,0.416c0.045,0.318,0.097,0.639,0.154,0.955l-0.985,0.178"/>
		<path clip-path="url(#SVGID_8_)" fill="#FFFFFF" d="M0.02,23.667l0.172,0.014c0.094-0.768,0.471-1.399,1.168-1.348
			c0.572,0.039,0.934,0.426,0.947,1.039l0.018,0.004c0.15-0.176,0.283-0.244,0.525-0.381c0.378-0.219,1.428-0.582,1.428-0.582
			c-0.087,0.353-0.14,0.687-0.19,1.033c0,0-0.612,0.166-0.897,0.272c-0.346,0.125-0.671,0.33-0.72,0.595
			c-0.011,0.053-0.013,0.116-0.016,0.149l1.493,0.146c-0.03,0.305-0.055,0.61-0.073,0.916l-4.015-0.232 M0.856,23.87
			c-0.016,0.145-0.019,0.289-0.036,0.447l0.955,0.096c0.012-0.133,0.031-0.291,0.046-0.43c0.029-0.238-0.019-0.603-0.406-0.646
			C1.1,23.299,0.9,23.47,0.856,23.87"/>
		<path clip-path="url(#SVGID_8_)" fill="#FFFFFF" d="M1.813,16.791l4.302,0.118c-0.153,0.318-0.3,0.644-0.44,0.968l-0.906-0.041
			c-0.171,0.416-0.331,0.838-0.478,1.266l0.707,0.57c-0.108,0.324-0.208,0.653-0.301,0.985L1.438,17.78 M2.426,17.643l1.248,0.959
			c0.101-0.283,0.208-0.561,0.319-0.842L2.43,17.631L2.426,17.643z"/>
		<path clip-path="url(#SVGID_8_)" fill="#FFFFFF" d="M8.445,7.143l2.908,0.973L9.674,6.057l0.791-0.623l2.372,3.191
			c-0.271,0.209-0.538,0.424-0.799,0.645L9.232,8.342l1.773,1.854c-0.202,0.193-0.4,0.386-0.595,0.588L7.563,8.008"/>
		<path clip-path="url(#SVGID_8_)" fill="#FFFFFF" d="M31.581,3.453c0.21,0.127,0.561,0.311,0.827,0.375
			c0.303,0.073,0.637,0.092,0.724-0.261c0.084-0.346-0.347-0.485-0.753-0.723c-0.407-0.238-0.796-0.574-0.619-1.299
			c0.199-0.806,1.102-0.982,1.811-0.808c0.417,0.103,0.783,0.294,1.132,0.536l-0.445,0.624c-0.227-0.152-0.553-0.301-0.753-0.35
			c-0.467-0.114-0.681,0.011-0.739,0.25c-0.036,0.152,0.04,0.308,0.451,0.507c0.906,0.451,1.071,0.899,0.944,1.425
			c-0.227,0.924-1.056,1.096-1.89,0.891c-0.389-0.094-0.775-0.282-1.113-0.497L31.581,3.453z"/>
		<path clip-path="url(#SVGID_8_)" fill="#FFFFFF" d="M39.505,2.99c1.16,0.608,1.413,1.78,0.894,2.772
			c-0.522,0.994-1.631,1.449-2.79,0.842c-1.165-0.611-1.419-1.783-0.898-2.777C37.232,2.835,38.341,2.379,39.505,2.99 M37.978,5.889
			c0.512,0.269,1.11,0.141,1.502-0.607c0.394-0.753,0.161-1.316-0.352-1.585c-0.508-0.267-1.103-0.14-1.497,0.611
			S37.469,5.623,37.978,5.889"/>
		<path clip-path="url(#SVGID_8_)" fill="#FFFFFF" d="M50.804,28.725c-0.102,0.225-0.239,0.594-0.272,0.865
			c-0.037,0.311-0.017,0.645,0.344,0.688c0.355,0.043,0.442-0.402,0.627-0.836c0.189-0.43,0.474-0.857,1.218-0.768
			c0.823,0.098,1.106,0.975,1.019,1.699c-0.051,0.43-0.2,0.812-0.395,1.189l-0.676-0.367c0.125-0.242,0.235-0.584,0.258-0.791
			c0.057-0.475-0.095-0.674-0.336-0.701c-0.155-0.02-0.302,0.074-0.45,0.51c-0.34,0.951-0.764,1.17-1.3,1.105
			c-0.945-0.113-1.216-0.916-1.114-1.768c0.048-0.398,0.185-0.803,0.359-1.162L50.804,28.725z"/>
		<path clip-path="url(#SVGID_8_)" fill="#FFFFFF" d="M4.975,36.465c-0.015-0.246-0.064-0.641-0.162-0.895
			c-0.111-0.293-0.286-0.578-0.624-0.449c-0.334,0.127-0.203,0.562-0.168,1.031c0.037,0.471-0.019,0.98-0.717,1.246
			c-0.776,0.297-1.433-0.348-1.694-1.027c-0.154-0.402-0.203-0.812-0.203-1.238l0.768,0.014c0.003,0.271,0.065,0.623,0.139,0.818
			c0.17,0.447,0.396,0.553,0.625,0.463c0.146-0.055,0.231-0.205,0.161-0.658c-0.144-1.002,0.13-1.391,0.636-1.584
			c0.89-0.34,1.5,0.242,1.807,1.045c0.144,0.375,0.209,0.797,0.226,1.197L4.975,36.465z"/>
		<path clip-path="url(#SVGID_8_)" fill="#FFFFFF" d="M14.363,2.99c1.161-0.61,2.269-0.153,2.791,0.839
			c0.52,0.994,0.268,2.164-0.893,2.775c-1.165,0.609-2.273,0.154-2.794-0.84C12.945,4.772,13.199,3.601,14.363,2.99 M15.884,5.895
			c0.513-0.271,0.746-0.834,0.352-1.584c-0.395-0.75-0.991-0.879-1.503-0.608c-0.509,0.266-0.742,0.83-0.348,1.581
			C14.778,6.032,15.374,6.161,15.884,5.895"/>
		<path clip-path="url(#SVGID_8_)" fill="#FFFFFF" d="M20.133,3.984c0.245,0.013,0.641,0.013,0.906-0.052
			c0.304-0.076,0.608-0.214,0.522-0.568c-0.087-0.345-0.534-0.269-1.004-0.289c-0.471-0.021-0.971-0.139-1.152-0.863
			c-0.2-0.807,0.52-1.381,1.228-1.559c0.417-0.103,0.83-0.103,1.251-0.051l-0.103,0.76c-0.273-0.029-0.629-0.009-0.829,0.04
			c-0.466,0.116-0.598,0.327-0.539,0.564c0.037,0.152,0.179,0.254,0.635,0.24c1.011-0.022,1.365,0.297,1.496,0.823
			c0.23,0.925-0.423,1.461-1.256,1.669c-0.39,0.096-0.818,0.109-1.216,0.076L20.133,3.984z"/>
		<path clip-path="url(#SVGID_8_)" fill="#FFFFFF" d="M26.935,2.928c0.538,0,0.974-0.435,0.974-0.973
			c0-0.537-0.436-0.972-0.974-0.972c-0.539,0-0.974,0.435-0.974,0.972C25.961,2.493,26.396,2.928,26.935,2.928"/>
		<path clip-path="url(#SVGID_8_)" fill="#FFFFFF" d="M46.695,13.301c0.304,0.443,0.912,0.555,1.354,0.248
			c0.442-0.305,0.551-0.91,0.246-1.352c-0.303-0.443-0.909-0.552-1.351-0.248C46.501,12.254,46.39,12.86,46.695,13.301"/>
		<path clip-path="url(#SVGID_8_)" fill="#FFFFFF" d="M26.935,50.94c0.538,0,0.974,0.436,0.974,0.975s-0.436,0.973-0.974,0.973
			c-0.539,0-0.974-0.434-0.974-0.973S26.396,50.94,26.935,50.94"/>
		<path clip-path="url(#SVGID_8_)" fill="#FFFFFF" d="M7.173,13.301c0.305-0.441,0.195-1.047-0.248-1.352
			c-0.442-0.304-1.048-0.195-1.353,0.248c-0.305,0.442-0.194,1.047,0.248,1.352C6.262,13.856,6.868,13.744,7.173,13.301"/>
	</g>
	<g>
		<path fill="#EC1A3B" d="M30.628,30.625c-0.304,0.311-0.725,0.502-1.192,0.502h-0.981c-0.549,0-1.036,0.266-1.34,0.676h-0.361
			c-0.304-0.41-0.792-0.676-1.341-0.676h-0.979c-0.922,0-1.668-0.746-1.668-1.668v-6.695"/>
		<path fill="#FFFFFF" d="M22.766,22.764h8.338v6.695c0,0.457-0.181,0.865-0.476,1.166"/>
		<path fill="#231F20" d="M31.539,29.438c0,1.16-0.943,2.1-2.103,2.1h-0.981c-0.514,0-0.956,0.314-1.145,0.76h-0.752
			c-0.188-0.445-0.629-0.76-1.145-0.76h-0.979c-1.162,0-2.103-0.939-2.103-2.1v-7.109h9.208V29.438z M30.679,23.192h-7.488v6.246
			c0,0.682,0.556,1.24,1.243,1.24h0.979c0.598,0,1.126,0.25,1.508,0.648h0.027c0.383-0.398,0.911-0.648,1.507-0.648h0.981
			c0.687,0,1.243-0.559,1.243-1.24V23.192z"/>
		<path fill="#231F20" d="M138.204,20.614h4.92v0.741h-0.133c-1.519,0-1.748,0.665-1.748,1.576v4.731
			c0,4.235-3.077,5.034-5.338,5.034c-3.419,0-5.584-1.48-5.584-4.389v-5.661c0-0.95-0.267-1.292-1.331-1.292h-0.323v-0.741h5.946
			v0.741h-0.323c-0.798,0-1.348,0.361-1.348,1.292v5.661c0,2.318,1.71,3.117,3.438,3.117c2.489,0,3.725-1.408,3.725-3.496v-4.618
			c0-1.348-0.38-1.956-1.559-1.956h-0.342V20.614z"/>
		<path fill="#231F20" d="M152.625,30.702c0,0.932,0.342,1.121,1.083,1.121v0.607h-4.482v-0.607c0.778-0.059,1.083-0.59,1.083-2.146
			v-1.654c0-1.519-0.418-2.107-1.179-2.107c-0.589,0-1.216,0.284-2.014,0.836v3.855c0,0.855,0.362,1.217,1.122,1.217h0.17v0.607
			h-4.806v-0.607h0.113c0.799,0,1.083-0.344,1.083-1.33v-3.705c0-0.418-0.228-0.664-0.894-0.855l-0.398-0.114v-0.456l3.248-1.101
			h0.361v1.69c1.387-0.911,2.604-1.482,3.515-1.482c1.388,0,1.994,0.989,1.994,3.267V30.702z"/>
		<path fill="#231F20" d="M159.144,32.43h-4.749v-0.607h0.209c0.777,0,1.062-0.344,1.062-1.33v-3.648
			c0-0.494-0.114-0.626-0.645-0.817l-0.627-0.227v-0.456l3.248-1.083h0.342v6.364c0,0.779,0.323,1.197,1.159,1.197V32.43z
			 M158.25,21.241c0,0.76-0.721,1.292-1.501,1.292c-0.874,0-1.519-0.551-1.519-1.292c0-0.684,0.721-1.292,1.519-1.292
			C157.623,19.949,158.25,20.519,158.25,21.241"/>
		<path fill="#231F20" d="M159.354,24.679h4.825v0.608h-0.665c-0.399,0-0.57,0.361-0.247,1.064l1.689,3.78l1.483-3.344
			c0.436-0.987,0.209-1.367-1.121-1.5v-0.608h3.78v0.608c-0.987,0.095-1.235,0.342-1.597,1.14l-2.717,6.136h-1.139l-2.83-6.098
			c-0.362-0.779-0.627-1.083-1.463-1.178V24.679z"/>
		<path fill="#231F20" d="M176.756,30.226c-1.062,1.501-2.602,2.413-4.064,2.413c-2.071,0-3.478-1.596-3.478-3.895
			c0-2.507,1.691-4.274,4.066-4.274c1.006,0,1.804,0.323,2.393,0.912c1.121,1.121,0.589,2.185,1.254,2.526v0.551h-5.263
			c0.153,1.576,1.216,2.773,2.337,2.773c0.703,0,1.387-0.398,2.319-1.367L176.756,30.226z M174.305,27.719
			c-0.019-1.463-0.53-2.356-1.349-2.356c-0.778,0-1.48,1.006-1.348,2.356H174.305z"/>
		<path fill="#231F20" d="M183.216,32.43h-5.28v-0.607h0.133c0.778,0,1.063-0.342,1.063-1.33v-3.097
			c0-0.855-0.113-1.045-0.685-1.273l-0.512-0.209v-0.475l3.114-1.178h0.399v2.128h0.039c0.702-1.368,1.006-1.919,1.651-1.919
			c0.134,0,0.285,0.02,0.381,0.058l1.501,0.55c-0.229,0.798-0.533,1.482-0.912,2.014c-0.589-0.228-1.292-0.476-1.538-0.476
			c-0.381,0-0.704,0.267-1.122,0.856v3.077c0,0.912,0.286,1.273,1.272,1.273h0.494V32.43z"/>
		<path fill="#231F20" d="M186.22,30.189h0.607c0.323,1.063,1.159,1.634,1.977,1.634c0.53,0,0.986-0.4,0.986-0.874
			c0-1.312-3.57-1.767-3.57-4.066c0-1.444,1.196-2.413,2.981-2.413c0.722,0,1.33,0.115,2.128,0.4l0.038,2.032h-0.608
			c-0.342-1.045-0.969-1.614-1.784-1.614c-0.494,0-0.874,0.303-0.874,0.721c0,1.558,3.741,1.615,3.741,4.217
			c0,1.405-1.007,2.396-2.47,2.396c-1.31,0-1.747-0.268-2.013-0.268c-0.114,0-0.229,0.076-0.38,0.247h-0.551L186.22,30.189z"/>
		<path fill="#231F20" d="M197.58,32.43h-4.749v-0.607h0.209c0.779,0,1.064-0.344,1.064-1.33v-3.648
			c0-0.494-0.115-0.626-0.646-0.817l-0.627-0.227v-0.456l3.248-1.083h0.342v6.364c0,0.779,0.323,1.197,1.159,1.197V32.43z
			 M196.688,21.241c0,0.76-0.723,1.292-1.501,1.292c-0.874,0-1.521-0.551-1.521-1.292c0-0.684,0.723-1.292,1.521-1.292
			C196.062,19.949,196.688,20.519,196.688,21.241"/>
		<path fill="#231F20" d="M201.874,30.322c0,0.702,0.323,1.007,0.874,1.007c0.456,0,0.894-0.285,1.444-0.949l0.266,0.531
			c-0.569,1.025-1.71,1.729-2.755,1.729c-1.292,0-2.146-0.722-2.146-2.355v-4.56h-1.008v-0.494c1.141-0.474,2.433-1.861,2.773-2.926
			h0.551v2.375h2.489l-0.285,1.045h-2.204V30.322z"/>
		<path fill="#231F20" d="M207.404,27.016c-0.665-1.368-0.988-1.729-1.805-1.729v-0.608h4.845v0.608c-0.989,0-1.14,0.38-0.78,1.14
			l1.577,3.268l1.444-2.926c0.398-0.817,0.151-1.463-0.988-1.482v-0.608h3.534v0.608c-0.855,0.19-1.103,0.419-1.634,1.5
			l-4.256,8.665c-0.476,0.949-1.063,1.405-1.729,1.405c-0.684,0-1.197-0.456-1.197-1.083c0-0.305,0.114-0.627,0.285-0.798
			c0.874-0.874,1.881,0.304,2.888-1.899l0.38-0.836L207.404,27.016z"/>
	</g>
</g>
</svg>
