<svg xmlns="http://www.w3.org/2000/svg" width="19" height="17" viewBox="0 0 19 17">
  <path fill-rule="evenodd" d="M1067.87982,1185.95726 C1066.98748,1185.95726 1066.14866,1185.60968 1065.51771,1184.97873 C1064.88676,1184.34778 1064.53918,1183.5084 1064.53918,1182.61662 C1064.53918,1181.72428 1064.88676,1180.88545 1065.51771,1180.25451 L1075.0777,1170.69396 C1076.81956,1168.95265 1079.65432,1168.95209 1081.39562,1170.69396 C1082.23952,1171.53785 1082.70372,1172.66003 1082.70372,1173.8532 C1082.70372,1175.04637 1082.23952,1176.16856 1081.39562,1177.01189 L1074.22535,1184.18216 L1073.48455,1183.44079 L1080.65482,1176.27108 C1081.9877,1174.93764 1081.9877,1172.7682 1080.65482,1171.43532 C1079.32251,1170.10188 1077.15194,1170.10132 1075.8185,1171.43532 L1066.25851,1180.99531 C1065.82529,1181.42852 1065.587,1182.0037 1065.587,1182.61662 C1065.587,1183.22898 1065.82529,1183.80472 1066.25851,1184.23737 C1067.15254,1185.13196 1068.6071,1185.13083 1069.50057,1184.23737 L1076.67084,1177.06766 C1077.12602,1176.61304 1077.12602,1175.87336 1076.67084,1175.41818 C1076.21678,1174.96356 1075.47654,1174.96356 1075.02192,1175.41818 L1070.24193,1180.19874 L1069.50057,1179.45737 L1074.28112,1174.67738 C1075.14417,1173.81433 1076.54859,1173.81377 1077.4122,1174.67738 C1078.27525,1175.54099 1078.27525,1176.94541 1077.4122,1177.80846 L1070.24193,1184.97873 C1069.61098,1185.60968 1068.7716,1185.95726 1067.87982,1185.95726" transform="translate(-1064 -1169)"></path>
</svg>
