<svg xmlns="http://www.w3.org/2000/svg" width="19" height="18" viewBox="0 0 19 18">
  <g fill="#FFF" fill-rule="evenodd" transform="translate(.642 .33)">
    <path d="M1.82555693,11.4678082 L0.310731773,17.5283515 L6.37127509,16.0135264 L15.5913286,6.7928515 L11.0462318,2.24775468 L1.82555693,11.4678082 Z M2.86940692,12.0587019 L11.0462318,3.88187698 L13.9572063,6.7928515 L5.78038144,14.9696764 L1.89949631,15.939587 L2.86940692,12.0587019 Z"/>
    <path d="M5.36178516,15.6693044 C4.96909874,14.093588 3.7456817,12.870171 2.16934395,12.4768632 L2.44956797,11.3559672 C4.44096035,11.8524172 5.98685248,13.3983094 6.48330256,15.3897017 L5.36178516,15.6693044 Z"/>
    <polygon points="5.242 13.415 4.425 12.597 12.502 4.52 13.319 5.337"/>
    <path d="M1.10492764 16.7342178L2.90743288 16.2831255C2.7415353 15.6176711 2.22085298 15.0976101 1.55601995 14.9317126L1.10492764 16.7342178zM13.1064065 1.82207514L16.017381 4.73304966 16.5977119 4.15271877C16.2920129 2.69505683 15.1443993 1.54744318 13.6867373 1.24174425L13.1064065 1.82207514zM16.017381 6.36717196L11.4716628 1.82207514 13.2822455.0114924845 13.5655762.0493941805C15.7601465.34204498 17.4974111 2.0793096 17.7900619 4.27387993L17.8273423 4.5565893 16.017381 6.36717196z"/>
  </g>
</svg>
